%TF.GenerationSoftware,KiCad,Pcbnew,7.0.8*%
%TF.CreationDate,2024-04-23T11:22:23-04:00*%
%TF.ProjectId,keyboard-roller-encoder,6b657962-6f61-4726-942d-726f6c6c6572,rev?*%
%TF.SameCoordinates,Original*%
%TF.FileFunction,Soldermask,Top*%
%TF.FilePolarity,Negative*%
%FSLAX46Y46*%
G04 Gerber Fmt 4.6, Leading zero omitted, Abs format (unit mm)*
G04 Created by KiCad (PCBNEW 7.0.8) date 2024-04-23 11:22:23*
%MOMM*%
%LPD*%
G01*
G04 APERTURE LIST*
%ADD10C,0.010000*%
%ADD11C,4.055000*%
%ADD12C,0.500000*%
%ADD13R,1.800000X1.200000*%
%ADD14R,1.700000X2.600000*%
%ADD15R,1.500000X1.200000*%
%ADD16C,1.750000*%
%ADD17R,1.200000X1.200000*%
%ADD18R,1.150000X1.050000*%
G04 APERTURE END LIST*
D10*
X44550000Y-61500000D02*
X44550000Y-61750000D01*
X36450000Y-61750000D02*
X36450000Y-61500000D01*
D11*
X42527500Y-61500000D02*
G75*
G03*
X42527500Y-61500000I-2027500J0D01*
G01*
X42527500Y-61750000D02*
G75*
G03*
X42527500Y-61750000I-2027500J0D01*
G01*
X42527500Y-36500000D02*
G75*
G03*
X42527500Y-36500000I-2027500J0D01*
G01*
X42527500Y-36750000D02*
G75*
G03*
X42527500Y-36750000I-2027500J0D01*
G01*
D10*
X44550000Y-36500000D02*
X44550000Y-36750000D01*
X36450000Y-36750000D02*
X36450000Y-36500000D01*
D12*
%TO.C,mouse-bite-2mm-slot*%
X17750000Y-68250000D03*
X18500000Y-68250000D03*
X19250000Y-68250000D03*
%TD*%
%TO.C,mouse-bite-2mm-slot*%
X70750000Y-68250000D03*
X71500000Y-68250000D03*
X72250000Y-68250000D03*
%TD*%
%TO.C,mouse-bite-2mm-slot*%
X72250000Y-24750000D03*
X71500000Y-24750000D03*
X70750000Y-24750000D03*
%TD*%
%TO.C,mouse-bite-2mm-slot*%
X19250000Y-24750000D03*
X18500000Y-24750000D03*
X17750000Y-24750000D03*
%TD*%
%TO.C,*%
X34990000Y-58260000D03*
%TD*%
%TO.C,*%
X36010000Y-59750000D03*
%TD*%
%TO.C,*%
X36400000Y-59100000D03*
%TD*%
%TO.C,*%
X34610000Y-58900000D03*
%TD*%
%TO.C,*%
X34610000Y-33900000D03*
%TD*%
%TO.C,*%
X34990000Y-33260000D03*
%TD*%
%TO.C,*%
X36400000Y-34100000D03*
%TD*%
%TO.C,*%
X36010000Y-34750000D03*
%TD*%
%TO.C,mouse-bite-2mm-slot*%
X19250000Y-49750000D03*
X18500000Y-49750000D03*
X17750000Y-49750000D03*
%TD*%
%TO.C,mouse-bite-2mm-slot*%
X17750000Y-43250000D03*
X18500000Y-43250000D03*
X19250000Y-43250000D03*
%TD*%
%TO.C,mouse-bite-2mm-slot*%
X70750000Y-43250000D03*
X71500000Y-43250000D03*
X72250000Y-43250000D03*
%TD*%
%TO.C,mouse-bite-2mm-slot*%
X72250000Y-49750000D03*
X71500000Y-49750000D03*
X70750000Y-49750000D03*
%TD*%
%TO.C,mouse-bite-2mm-slot*%
X22450000Y-49750000D03*
X23200000Y-49750000D03*
X23950000Y-49750000D03*
%TD*%
%TO.C,mouse-bite-2mm-slot*%
X48550000Y-68250000D03*
X47800000Y-68250000D03*
X47050000Y-68250000D03*
%TD*%
%TO.C,mouse-bite-2mm-slot*%
X33950000Y-68250000D03*
X33200000Y-68250000D03*
X32450000Y-68250000D03*
%TD*%
%TO.C,mouse-bite-2mm-slot*%
X37050000Y-49750000D03*
X37800000Y-49750000D03*
X38550000Y-49750000D03*
%TD*%
%TO.C,mouse-bite-2mm-slot*%
X54750000Y-68250000D03*
X55500000Y-68250000D03*
X56250000Y-68250000D03*
%TD*%
%TO.C,mouse-bite-2mm-slot*%
X64250000Y-49750000D03*
X63500000Y-49750000D03*
X62750000Y-49750000D03*
%TD*%
%TO.C,mouse-bite-2mm-slot*%
X56250000Y-49750000D03*
X55500000Y-49750000D03*
X54750000Y-49750000D03*
%TD*%
%TO.C,mouse-bite-2mm-slot*%
X62750000Y-68250000D03*
X63500000Y-68250000D03*
X64250000Y-68250000D03*
%TD*%
%TO.C,mouse-bite-2mm-slot*%
X32450000Y-43250000D03*
X33200000Y-43250000D03*
X33950000Y-43250000D03*
%TD*%
%TO.C,mouse-bite-2mm-slot*%
X47050000Y-43250000D03*
X47800000Y-43250000D03*
X48550000Y-43250000D03*
%TD*%
%TO.C,mouse-bite-2mm-slot*%
X23950000Y-24750000D03*
X23200000Y-24750000D03*
X22450000Y-24750000D03*
%TD*%
%TO.C,mouse-bite-2mm-slot*%
X38550000Y-24750000D03*
X37800000Y-24750000D03*
X37050000Y-24750000D03*
%TD*%
%TO.C,mouse-bite-2mm-slot*%
X64250000Y-43250000D03*
X63500000Y-43250000D03*
X62750000Y-43250000D03*
%TD*%
%TO.C,mouse-bite-2mm-slot*%
X56250000Y-43250000D03*
X55500000Y-43250000D03*
X54750000Y-43250000D03*
%TD*%
%TO.C,mouse-bite-2mm-slot*%
X62750000Y-24750000D03*
X63500000Y-24750000D03*
X64250000Y-24750000D03*
%TD*%
%TO.C,mouse-bite-2mm-slot*%
X54750000Y-24750000D03*
X55500000Y-24750000D03*
X56250000Y-24750000D03*
%TD*%
D13*
%TO.C,J4*%
X45600000Y-66200000D03*
%TD*%
%TO.C,J3*%
X35400000Y-66200000D03*
%TD*%
%TO.C,J16*%
X25397106Y-51800001D03*
%TD*%
D14*
%TO.C,RE1*%
X26697106Y-56500001D03*
X34297106Y-56500001D03*
D15*
X30497106Y-52400001D03*
X28497106Y-52400001D03*
X32497106Y-52400001D03*
%TD*%
D13*
%TO.C,J18*%
X35597106Y-51800001D03*
%TD*%
%TO.C,J15*%
X64604495Y-52996446D03*
%TD*%
D16*
%TO.C,SW1*%
X52504495Y-61496446D03*
X52504495Y-56496446D03*
X67004495Y-58996446D03*
X67004495Y-56496446D03*
X67004495Y-61496446D03*
%TD*%
D13*
%TO.C,J9*%
X64604495Y-50596446D03*
%TD*%
D17*
%TO.C,J1*%
X59504495Y-50596446D03*
X61304495Y-50596446D03*
X57704495Y-50596446D03*
%TD*%
D18*
%TO.C,S1*%
X57829495Y-65881446D03*
X57829495Y-67331446D03*
X61179495Y-65881446D03*
X61179495Y-67331446D03*
%TD*%
D13*
%TO.C,J10*%
X54404495Y-50596446D03*
%TD*%
%TO.C,J11*%
X54404495Y-52996446D03*
%TD*%
%TO.C,J8*%
X54404495Y-67396446D03*
%TD*%
%TO.C,J14*%
X54404495Y-64996446D03*
%TD*%
%TO.C,J13*%
X64604495Y-67396446D03*
%TD*%
%TO.C,J12*%
X64604495Y-64996446D03*
%TD*%
%TO.C,J16*%
X25397106Y-26800001D03*
%TD*%
%TO.C,J15*%
X64604495Y-27996446D03*
%TD*%
D16*
%TO.C,SW1*%
X52504495Y-36496446D03*
X52504495Y-31496446D03*
X67004495Y-33996446D03*
X67004495Y-31496446D03*
X67004495Y-36496446D03*
%TD*%
D18*
%TO.C,S1*%
X57829495Y-40881446D03*
X57829495Y-42331446D03*
X61179495Y-40881446D03*
X61179495Y-42331446D03*
%TD*%
D14*
%TO.C,RE1*%
X26697106Y-31500001D03*
X34297106Y-31500001D03*
D15*
X30497106Y-27400001D03*
X28497106Y-27400001D03*
X32497106Y-27400001D03*
%TD*%
D13*
%TO.C,J18*%
X35597106Y-26800001D03*
%TD*%
%TO.C,J14*%
X54404495Y-39996446D03*
%TD*%
%TO.C,J13*%
X64604495Y-42396446D03*
%TD*%
%TO.C,J12*%
X64604495Y-39996446D03*
%TD*%
%TO.C,J11*%
X54404495Y-27996446D03*
%TD*%
%TO.C,J10*%
X54404495Y-25596446D03*
%TD*%
%TO.C,J9*%
X64604495Y-25596446D03*
%TD*%
%TO.C,J8*%
X54404495Y-42396446D03*
%TD*%
%TO.C,J4*%
X45600000Y-41200000D03*
%TD*%
%TO.C,J3*%
X35400000Y-41200000D03*
%TD*%
D17*
%TO.C,J1*%
X57704495Y-25596446D03*
X61304495Y-25596446D03*
X59504495Y-25596446D03*
%TD*%
M02*
