%TF.GenerationSoftware,KiCad,Pcbnew,7.0.8*%
%TF.CreationDate,2024-04-23T11:22:23-04:00*%
%TF.ProjectId,keyboard-roller-encoder,6b657962-6f61-4726-942d-726f6c6c6572,rev?*%
%TF.SameCoordinates,Original*%
%TF.FileFunction,Copper,L2,Bot*%
%TF.FilePolarity,Positive*%
%FSLAX46Y46*%
G04 Gerber Fmt 4.6, Leading zero omitted, Abs format (unit mm)*
G04 Created by KiCad (PCBNEW 7.0.8) date 2024-04-23 11:22:23*
%MOMM*%
%LPD*%
G01*
G04 APERTURE LIST*
%TA.AperFunction,NonConductor*%
%ADD10C,4.055000*%
%TD*%
%TA.AperFunction,NonConductor*%
%ADD11C,0.010000*%
%TD*%
%TA.AperFunction,SMDPad,CuDef*%
%ADD12R,1.800000X1.200000*%
%TD*%
%TA.AperFunction,SMDPad,CuDef*%
%ADD13R,1.200000X1.200000*%
%TD*%
%TA.AperFunction,ComponentPad*%
%ADD14C,1.750000*%
%TD*%
%TA.AperFunction,ViaPad*%
%ADD15C,0.800000*%
%TD*%
%TA.AperFunction,Conductor*%
%ADD16C,0.250000*%
%TD*%
G04 APERTURE END LIST*
D10*
X42528188Y-61750000D02*
G75*
G03*
X42528188Y-61750000I-2027500J0D01*
G01*
X42528188Y-61500000D02*
G75*
G03*
X42528188Y-61500000I-2027500J0D01*
G01*
D11*
X44550000Y-61500000D02*
X44550000Y-61750000D01*
X36450000Y-61750000D02*
X36450000Y-61500000D01*
X36450000Y-36750000D02*
X36450000Y-36500000D01*
X44550000Y-36500000D02*
X44550000Y-36750000D01*
D10*
X42528188Y-36750000D02*
G75*
G03*
X42528188Y-36750000I-2027500J0D01*
G01*
X42528188Y-36500000D02*
G75*
G03*
X42528188Y-36500000I-2027500J0D01*
G01*
D12*
%TO.P,J6,1,Pin_1*%
%TO.N,GND1*%
X35400000Y-66200000D03*
%TD*%
%TO.P,J5,1,Pin_1*%
%TO.N,GND1*%
X45600000Y-66200000D03*
%TD*%
%TO.P,J17,1,Pin_1*%
%TO.N,GND3*%
X25397106Y-51800001D03*
%TD*%
%TO.P,J19,1,Pin_1*%
%TO.N,GND3*%
X35597106Y-51800001D03*
%TD*%
D13*
%TO.P,J2,C,C*%
%TO.N,GND3*%
X30497106Y-51900001D03*
%TO.P,J2,B,B*%
%TO.N,Net-(J2-PadB)*%
X28697106Y-51900001D03*
%TO.P,J2,A,A*%
%TO.N,Net-(J2-PadA)*%
X32297106Y-51900001D03*
%TD*%
D14*
%TO.P,SW1,S2,S2*%
%TO.N,Net-(S1-COM_1)*%
X52504495Y-61496446D03*
%TO.P,SW1,S1,S1*%
%TO.N,Net-(S1-NO_1)*%
X52504495Y-56496446D03*
%TO.P,SW1,C,C*%
%TO.N,Net-(J15-Pin_1)*%
X67004495Y-58996446D03*
%TO.P,SW1,B,B*%
%TO.N,Net-(J1-PadB)*%
X67004495Y-56496446D03*
%TO.P,SW1,A,A*%
%TO.N,Net-(J1-PadA)*%
X67004495Y-61496446D03*
%TD*%
%TO.P,SW1,S2,S2*%
%TO.N,Net-(S1-COM_1)*%
X52504495Y-36496446D03*
%TO.P,SW1,S1,S1*%
%TO.N,Net-(S1-NO_1)*%
X52504495Y-31496446D03*
%TO.P,SW1,C,C*%
%TO.N,Net-(J15-Pin_1)*%
X67004495Y-33996446D03*
%TO.P,SW1,B,B*%
%TO.N,Net-(J1-PadB)*%
X67004495Y-31496446D03*
%TO.P,SW1,A,A*%
%TO.N,Net-(J1-PadA)*%
X67004495Y-36496446D03*
%TD*%
D12*
%TO.P,J19,1,Pin_1*%
%TO.N,GND3*%
X35597106Y-26800001D03*
%TD*%
%TO.P,J17,1,Pin_1*%
%TO.N,GND3*%
X25397106Y-26800001D03*
%TD*%
%TO.P,J6,1,Pin_1*%
%TO.N,GND1*%
X35400000Y-41200000D03*
%TD*%
%TO.P,J5,1,Pin_1*%
%TO.N,GND1*%
X45600000Y-41200000D03*
%TD*%
D13*
%TO.P,J2,A,A*%
%TO.N,Net-(J2-PadA)*%
X32297106Y-26900001D03*
%TO.P,J2,B,B*%
%TO.N,Net-(J2-PadB)*%
X28697106Y-26900001D03*
%TO.P,J2,C,C*%
%TO.N,GND3*%
X30497106Y-26900001D03*
%TD*%
D15*
%TO.N,Net-(J2-PadA)*%
X34497106Y-54000001D03*
%TO.N,Net-(J2-PadB)*%
X26507106Y-54000001D03*
%TO.N,Net-(S1-NO_1)*%
X56654495Y-67326446D03*
%TO.N,Net-(J1-PadB)*%
X62514495Y-50596446D03*
%TO.N,GND2*%
X53154495Y-54496446D03*
X65854495Y-63496446D03*
%TO.N,Net-(J1-PadA)*%
X57704495Y-51796446D03*
%TO.N,Net-(S1-COM_1)*%
X56654495Y-65886446D03*
%TO.N,Net-(J1-PadA)*%
X57704495Y-26796446D03*
%TO.N,GND2*%
X65854495Y-38496446D03*
X53154495Y-29496446D03*
%TO.N,Net-(S1-NO_1)*%
X56654495Y-42326446D03*
%TO.N,Net-(S1-COM_1)*%
X56654495Y-40886446D03*
%TO.N,Net-(J1-PadB)*%
X62514495Y-25596446D03*
%TO.N,Net-(J2-PadA)*%
X34497106Y-29000001D03*
%TO.N,Net-(J2-PadB)*%
X26507106Y-29000001D03*
%TD*%
D16*
%TO.N,Net-(J2-PadB)*%
X26507106Y-53030001D02*
X27637106Y-51900001D01*
X27637106Y-51900001D02*
X28697106Y-51900001D01*
%TO.N,Net-(J2-PadA)*%
X34497106Y-54000001D02*
X34497106Y-53000001D01*
X33397106Y-51900001D02*
X32297106Y-51900001D01*
X34497106Y-53000001D02*
X33397106Y-51900001D01*
%TO.N,Net-(J2-PadB)*%
X26507106Y-54000001D02*
X26507106Y-53030001D01*
%TO.N,Net-(S1-NO_1)*%
X56654495Y-67326446D02*
X56049495Y-67326446D01*
X51309288Y-60761653D02*
X51354495Y-60716446D01*
%TO.N,Net-(S1-COM_1)*%
X56654495Y-65886446D02*
X55245891Y-65886446D01*
%TO.N,Net-(J1-PadB)*%
X62514495Y-50596446D02*
X62910891Y-50596446D01*
X67004495Y-54690050D02*
X67004495Y-56496446D01*
%TO.N,Net-(S1-NO_1)*%
X56049495Y-67326446D02*
X52399495Y-63676446D01*
%TO.N,Net-(J1-PadA)*%
X66252693Y-54574644D02*
X63474495Y-51796446D01*
%TO.N,Net-(S1-NO_1)*%
X52399495Y-63676446D02*
X51309288Y-62586239D01*
%TO.N,Net-(J1-PadB)*%
X62910891Y-50596446D02*
X67004495Y-54690050D01*
%TO.N,Net-(J1-PadA)*%
X57704495Y-51796446D02*
X63474495Y-51796446D01*
%TO.N,Net-(S1-COM_1)*%
X52504495Y-63145050D02*
X52504495Y-61496446D01*
X55245891Y-65886446D02*
X52504495Y-63145050D01*
%TO.N,Net-(S1-NO_1)*%
X51309288Y-62586239D02*
X51309288Y-60761653D01*
%TO.N,Net-(J1-PadA)*%
X57704495Y-26796446D02*
X63474495Y-26796446D01*
X66252693Y-29574644D02*
X63474495Y-26796446D01*
%TO.N,Net-(S1-NO_1)*%
X51309288Y-35761653D02*
X51354495Y-35716446D01*
X51309288Y-37586239D02*
X51309288Y-35761653D01*
X52399495Y-38676446D02*
X51309288Y-37586239D01*
X56049495Y-42326446D02*
X52399495Y-38676446D01*
X56654495Y-42326446D02*
X56049495Y-42326446D01*
%TO.N,Net-(S1-COM_1)*%
X55245891Y-40886446D02*
X52504495Y-38145050D01*
X56654495Y-40886446D02*
X55245891Y-40886446D01*
X52504495Y-38145050D02*
X52504495Y-36496446D01*
%TO.N,Net-(J1-PadB)*%
X67004495Y-29690050D02*
X67004495Y-31496446D01*
X62910891Y-25596446D02*
X67004495Y-29690050D01*
X62514495Y-25596446D02*
X62910891Y-25596446D01*
%TO.N,Net-(J2-PadA)*%
X33397106Y-26900001D02*
X32297106Y-26900001D01*
X34497106Y-28000001D02*
X33397106Y-26900001D01*
X34497106Y-29000001D02*
X34497106Y-28000001D01*
%TO.N,Net-(J2-PadB)*%
X27637106Y-26900001D02*
X28697106Y-26900001D01*
X26507106Y-28030001D02*
X27637106Y-26900001D01*
X26507106Y-29000001D02*
X26507106Y-28030001D01*
%TD*%
%TA.AperFunction,Conductor*%
%TO.N,Net-(J1-PadA)*%
G36*
X63591315Y-26746475D02*
G01*
X63608422Y-26760099D01*
X64958756Y-28104637D01*
X66650000Y-29795881D01*
X66677776Y-29850396D01*
X66678995Y-29865883D01*
X66678995Y-30401341D01*
X66660088Y-30459532D01*
X66615760Y-30493655D01*
X66523049Y-30529573D01*
X66523040Y-30529577D01*
X66353589Y-30634498D01*
X66353587Y-30634499D01*
X66353585Y-30634501D01*
X66206286Y-30768782D01*
X66206284Y-30768784D01*
X66086175Y-30927833D01*
X66086165Y-30927849D01*
X65997324Y-31106265D01*
X65942778Y-31297975D01*
X65924387Y-31496446D01*
X65942778Y-31694916D01*
X65987914Y-31853553D01*
X65997324Y-31886626D01*
X66086169Y-32065050D01*
X66206286Y-32224110D01*
X66353585Y-32358391D01*
X66523049Y-32463319D01*
X66708909Y-32535322D01*
X66904835Y-32571946D01*
X67104155Y-32571946D01*
X67300081Y-32535322D01*
X67485941Y-32463319D01*
X67655405Y-32358391D01*
X67802704Y-32224110D01*
X67821498Y-32199222D01*
X67871653Y-32164181D01*
X67932828Y-32165312D01*
X67981654Y-32202184D01*
X67999500Y-32258885D01*
X67999500Y-33234006D01*
X67980593Y-33292197D01*
X67931093Y-33328161D01*
X67869907Y-33328161D01*
X67821497Y-33293668D01*
X67820386Y-33292197D01*
X67802704Y-33268782D01*
X67655405Y-33134501D01*
X67485941Y-33029573D01*
X67300081Y-32957570D01*
X67300080Y-32957569D01*
X67300078Y-32957569D01*
X67104155Y-32920946D01*
X66904835Y-32920946D01*
X66708911Y-32957569D01*
X66523048Y-33029573D01*
X66523043Y-33029576D01*
X66353589Y-33134498D01*
X66353587Y-33134499D01*
X66353585Y-33134501D01*
X66206286Y-33268782D01*
X66206284Y-33268784D01*
X66086175Y-33427833D01*
X66086165Y-33427849D01*
X65997324Y-33606265D01*
X65942778Y-33797975D01*
X65942778Y-33797977D01*
X65924387Y-33996446D01*
X65942778Y-34194915D01*
X65997324Y-34386626D01*
X66086169Y-34565050D01*
X66206286Y-34724110D01*
X66353585Y-34858391D01*
X66523049Y-34963319D01*
X66708909Y-35035322D01*
X66904835Y-35071946D01*
X67104155Y-35071946D01*
X67300081Y-35035322D01*
X67485941Y-34963319D01*
X67655405Y-34858391D01*
X67802704Y-34724110D01*
X67821498Y-34699222D01*
X67871653Y-34664181D01*
X67932828Y-34665312D01*
X67981654Y-34702184D01*
X67999500Y-34758885D01*
X67999500Y-36397446D01*
X67980593Y-36455637D01*
X67931093Y-36491601D01*
X67900500Y-36496446D01*
X65693773Y-36496446D01*
X65635582Y-36477539D01*
X65599618Y-36428039D01*
X65599618Y-36366853D01*
X65608035Y-36347948D01*
X65612837Y-36339631D01*
X65646945Y-36212338D01*
X65646945Y-36080554D01*
X65612837Y-35953261D01*
X65546945Y-35839132D01*
X65546942Y-35839129D01*
X65529495Y-35821681D01*
X65501719Y-35767164D01*
X65500500Y-35751679D01*
X65500500Y-32248318D01*
X65519407Y-32190127D01*
X65529494Y-32178317D01*
X65546945Y-32160867D01*
X65612837Y-32046738D01*
X65646945Y-31919445D01*
X65646945Y-31787661D01*
X65612837Y-31660368D01*
X65546945Y-31546239D01*
X65453760Y-31453054D01*
X65339631Y-31387162D01*
X65212338Y-31353054D01*
X65080554Y-31353054D01*
X64953261Y-31387162D01*
X64839133Y-31453053D01*
X64839132Y-31453053D01*
X64839132Y-31453054D01*
X64821681Y-31470504D01*
X64767166Y-31498281D01*
X64751679Y-31499500D01*
X63783995Y-31499500D01*
X63725804Y-31480593D01*
X63689840Y-31431093D01*
X63684995Y-31400500D01*
X63684995Y-28548318D01*
X63703902Y-28490127D01*
X63713989Y-28478317D01*
X63731440Y-28460867D01*
X63797332Y-28346738D01*
X63831440Y-28219445D01*
X63831440Y-28087661D01*
X63797332Y-27960368D01*
X63731440Y-27846239D01*
X63638255Y-27753054D01*
X63524126Y-27687162D01*
X63396833Y-27653054D01*
X63396832Y-27653054D01*
X63396825Y-27653052D01*
X63390566Y-27652228D01*
X63335343Y-27625883D01*
X63306151Y-27572110D01*
X63304495Y-27554076D01*
X63304495Y-26942815D01*
X63323402Y-26884624D01*
X63340117Y-26866761D01*
X63475191Y-26754199D01*
X63531998Y-26731471D01*
X63591315Y-26746475D01*
G37*
%TD.AperFunction*%
%TD*%
%TA.AperFunction,Conductor*%
%TO.N,Net-(S1-NO_1)*%
G36*
X53198174Y-31515353D02*
G01*
X53201527Y-31517900D01*
X53335185Y-31623978D01*
X53369011Y-31674963D01*
X53369268Y-31727146D01*
X53353054Y-31787660D01*
X53353054Y-31787661D01*
X53353054Y-31919445D01*
X53387162Y-32046738D01*
X53453054Y-32160867D01*
X53470502Y-32178315D01*
X53498281Y-32232830D01*
X53499500Y-32248319D01*
X53499500Y-35734006D01*
X53480593Y-35792197D01*
X53431093Y-35828161D01*
X53369907Y-35828161D01*
X53321496Y-35793667D01*
X53302704Y-35768782D01*
X53155405Y-35634501D01*
X52985941Y-35529573D01*
X52800081Y-35457570D01*
X52800080Y-35457569D01*
X52800078Y-35457569D01*
X52604155Y-35420946D01*
X52404835Y-35420946D01*
X52208911Y-35457569D01*
X52023048Y-35529573D01*
X52023043Y-35529576D01*
X51853589Y-35634498D01*
X51853587Y-35634499D01*
X51853585Y-35634501D01*
X51706287Y-35768781D01*
X51706284Y-35768784D01*
X51586175Y-35927833D01*
X51586165Y-35927849D01*
X51497324Y-36106265D01*
X51442778Y-36297975D01*
X51442778Y-36297977D01*
X51424387Y-36496446D01*
X51442778Y-36694915D01*
X51497324Y-36886626D01*
X51586169Y-37065050D01*
X51706286Y-37224110D01*
X51853585Y-37358391D01*
X52023049Y-37463319D01*
X52115759Y-37499235D01*
X52163189Y-37537886D01*
X52178995Y-37591549D01*
X52178995Y-38128675D01*
X52178807Y-38132977D01*
X52175665Y-38168894D01*
X52175231Y-38173856D01*
X52185849Y-38213486D01*
X52186784Y-38217702D01*
X52193906Y-38258095D01*
X52194659Y-38259398D01*
X52204549Y-38283274D01*
X52204938Y-38284729D01*
X52204941Y-38284734D01*
X52228466Y-38318331D01*
X52230787Y-38321974D01*
X52251301Y-38357505D01*
X52282719Y-38383868D01*
X52285905Y-38386787D01*
X52355499Y-38456380D01*
X52383276Y-38510897D01*
X52384495Y-38526384D01*
X52384495Y-38566446D01*
X54047088Y-40329525D01*
X54073255Y-40384833D01*
X54061916Y-40444958D01*
X54017401Y-40486936D01*
X53975062Y-40496446D01*
X53538159Y-40496446D01*
X53479968Y-40477539D01*
X53468161Y-40467455D01*
X53453760Y-40453054D01*
X53339631Y-40387162D01*
X53212338Y-40353054D01*
X53080554Y-40353054D01*
X52961953Y-40384833D01*
X52953261Y-40387162D01*
X52839133Y-40453053D01*
X52839132Y-40453053D01*
X52839132Y-40453054D01*
X52821681Y-40470504D01*
X52767166Y-40498281D01*
X52751679Y-40499500D01*
X51099500Y-40499500D01*
X51041309Y-40480593D01*
X51005345Y-40431093D01*
X51000500Y-40400500D01*
X51000500Y-31595446D01*
X51019407Y-31537255D01*
X51068907Y-31501291D01*
X51099500Y-31496446D01*
X53139983Y-31496446D01*
X53198174Y-31515353D01*
G37*
%TD.AperFunction*%
%TD*%
%TA.AperFunction,Conductor*%
%TO.N,GND2*%
G36*
X64809871Y-36519407D02*
G01*
X64821679Y-36529492D01*
X64839132Y-36546945D01*
X64953261Y-36612837D01*
X65080554Y-36646945D01*
X65080556Y-36646945D01*
X65212336Y-36646945D01*
X65212338Y-36646945D01*
X65339631Y-36612837D01*
X65363770Y-36598899D01*
X65423618Y-36586177D01*
X65479514Y-36611062D01*
X65487820Y-36619493D01*
X65493570Y-36626074D01*
X65572080Y-36672982D01*
X65630271Y-36691889D01*
X65642971Y-36693900D01*
X65693769Y-36701946D01*
X65693773Y-36701946D01*
X65870017Y-36701946D01*
X65928208Y-36720853D01*
X65964172Y-36770353D01*
X65965227Y-36773818D01*
X65997324Y-36886626D01*
X66086169Y-37065050D01*
X66206286Y-37224110D01*
X66353585Y-37358391D01*
X66523049Y-37463319D01*
X66708909Y-37535322D01*
X66904835Y-37571946D01*
X67104155Y-37571946D01*
X67300081Y-37535322D01*
X67485941Y-37463319D01*
X67655405Y-37358391D01*
X67802704Y-37224110D01*
X67821498Y-37199222D01*
X67871653Y-37164181D01*
X67932828Y-37165312D01*
X67981654Y-37202184D01*
X67999500Y-37258885D01*
X67999500Y-40400500D01*
X67980593Y-40458691D01*
X67931093Y-40494655D01*
X67900500Y-40499500D01*
X66248320Y-40499500D01*
X66190129Y-40480593D01*
X66178320Y-40470507D01*
X66160867Y-40453054D01*
X66046738Y-40387162D01*
X65919445Y-40353054D01*
X65787661Y-40353054D01*
X65660368Y-40387162D01*
X65546239Y-40453054D01*
X65453054Y-40546239D01*
X65387162Y-40660368D01*
X65353054Y-40787661D01*
X65353054Y-40919445D01*
X65387162Y-41046738D01*
X65453054Y-41160867D01*
X65470502Y-41178315D01*
X65498281Y-41232830D01*
X65499500Y-41248319D01*
X65499500Y-42900705D01*
X65480593Y-42958896D01*
X65431093Y-42994860D01*
X65409641Y-42999282D01*
X65407290Y-42999499D01*
X65225029Y-43033570D01*
X65052127Y-43100552D01*
X65052122Y-43100555D01*
X64890590Y-43200572D01*
X64889779Y-43199263D01*
X64837923Y-43217171D01*
X64779395Y-43199335D01*
X64742529Y-43150503D01*
X64741116Y-43146079D01*
X64718188Y-43067994D01*
X64709953Y-43039947D01*
X64709950Y-43039942D01*
X64632144Y-42918873D01*
X64624999Y-42912682D01*
X64523373Y-42824623D01*
X64523371Y-42824622D01*
X64392456Y-42764834D01*
X64285804Y-42749500D01*
X64285799Y-42749500D01*
X64214201Y-42749500D01*
X64214196Y-42749500D01*
X64107543Y-42764834D01*
X63976628Y-42824622D01*
X63939830Y-42856507D01*
X63883470Y-42880323D01*
X63823875Y-42866463D01*
X63810170Y-42856507D01*
X63799171Y-42846977D01*
X63773373Y-42824623D01*
X63773371Y-42824622D01*
X63642456Y-42764834D01*
X63535804Y-42749500D01*
X63535799Y-42749500D01*
X63464201Y-42749500D01*
X63464196Y-42749500D01*
X63357543Y-42764834D01*
X63226628Y-42824622D01*
X63189830Y-42856507D01*
X63133470Y-42880323D01*
X63073875Y-42866463D01*
X63060170Y-42856507D01*
X63049171Y-42846977D01*
X63023373Y-42824623D01*
X63023371Y-42824622D01*
X62892456Y-42764834D01*
X62785804Y-42749500D01*
X62785799Y-42749500D01*
X62714201Y-42749500D01*
X62714196Y-42749500D01*
X62607543Y-42764834D01*
X62476628Y-42824622D01*
X62367855Y-42918873D01*
X62290049Y-43039942D01*
X62290047Y-43039947D01*
X62258883Y-43146080D01*
X62224347Y-43196587D01*
X62166719Y-43217148D01*
X62109542Y-43200358D01*
X62109410Y-43200572D01*
X62108634Y-43200091D01*
X62108012Y-43199909D01*
X62105981Y-43198449D01*
X61947877Y-43100555D01*
X61947872Y-43100552D01*
X61774973Y-43033571D01*
X61774972Y-43033570D01*
X61774970Y-43033570D01*
X61592710Y-42999500D01*
X61500099Y-42999500D01*
X57500500Y-42999500D01*
X57500000Y-42999500D01*
X57407290Y-42999500D01*
X57225029Y-43033570D01*
X57052127Y-43100552D01*
X57052122Y-43100555D01*
X56890590Y-43200572D01*
X56889779Y-43199263D01*
X56837923Y-43217171D01*
X56779395Y-43199335D01*
X56742529Y-43150503D01*
X56741116Y-43146080D01*
X56718188Y-43067994D01*
X56709986Y-43040059D01*
X56711733Y-42978901D01*
X56749096Y-42930448D01*
X56792051Y-42914018D01*
X56811257Y-42911490D01*
X56957336Y-42850982D01*
X57082777Y-42754728D01*
X57179031Y-42629287D01*
X57239539Y-42483208D01*
X57260177Y-42326446D01*
X57239539Y-42169684D01*
X57179032Y-42023607D01*
X57179032Y-42023606D01*
X57082781Y-41898169D01*
X57082780Y-41898168D01*
X57082777Y-41898164D01*
X57082772Y-41898160D01*
X57082771Y-41898159D01*
X56957333Y-41801908D01*
X56811261Y-41741403D01*
X56811253Y-41741401D01*
X56654496Y-41720764D01*
X56654494Y-41720764D01*
X56497736Y-41741401D01*
X56497728Y-41741403D01*
X56351656Y-41801908D01*
X56351655Y-41801908D01*
X56226215Y-41898162D01*
X56223875Y-41900502D01*
X56221765Y-41901576D01*
X56221065Y-41902114D01*
X56220965Y-41901984D01*
X56169356Y-41928275D01*
X56108925Y-41918699D01*
X56083872Y-41900497D01*
X55564325Y-41380950D01*
X55536548Y-41326433D01*
X55546119Y-41266001D01*
X55589384Y-41222736D01*
X55634329Y-41211946D01*
X56098525Y-41211946D01*
X56156716Y-41230853D01*
X56177065Y-41250677D01*
X56226213Y-41314728D01*
X56351654Y-41410982D01*
X56497733Y-41471490D01*
X56615304Y-41486968D01*
X56654494Y-41492128D01*
X56654495Y-41492128D01*
X56654496Y-41492128D01*
X56685847Y-41488000D01*
X56811257Y-41471490D01*
X56957336Y-41410982D01*
X57082777Y-41314728D01*
X57179031Y-41189287D01*
X57239539Y-41043208D01*
X57260177Y-40886446D01*
X57239539Y-40729684D01*
X57210827Y-40660368D01*
X57179032Y-40583607D01*
X57179032Y-40583606D01*
X57082781Y-40458169D01*
X57082780Y-40458168D01*
X57082777Y-40458164D01*
X57082772Y-40458160D01*
X57082771Y-40458159D01*
X56978360Y-40378042D01*
X56943704Y-40327618D01*
X56945305Y-40266453D01*
X56982553Y-40217912D01*
X57038627Y-40200500D01*
X62936175Y-40200500D01*
X62994366Y-40219407D01*
X63006174Y-40229492D01*
X63023627Y-40246945D01*
X63137756Y-40312837D01*
X63265049Y-40346945D01*
X63265051Y-40346945D01*
X63396831Y-40346945D01*
X63396833Y-40346945D01*
X63524126Y-40312837D01*
X63638255Y-40246945D01*
X63731440Y-40153760D01*
X63797332Y-40039631D01*
X63831440Y-39912338D01*
X63831440Y-39780554D01*
X63797332Y-39653261D01*
X63731440Y-39539132D01*
X63731437Y-39539129D01*
X63713990Y-39521681D01*
X63686214Y-39467164D01*
X63684995Y-39451679D01*
X63684995Y-36599500D01*
X63703902Y-36541309D01*
X63753402Y-36505345D01*
X63783995Y-36500500D01*
X64751680Y-36500500D01*
X64809871Y-36519407D01*
G37*
%TD.AperFunction*%
%TA.AperFunction,Conductor*%
G36*
X53981852Y-40720853D02*
G01*
X53993665Y-40730942D01*
X55807752Y-42545030D01*
X55810670Y-42548215D01*
X55837039Y-42579639D01*
X55837040Y-42579640D01*
X55872568Y-42600152D01*
X55876207Y-42602471D01*
X55909806Y-42625997D01*
X55909808Y-42625998D01*
X55909811Y-42626000D01*
X55909813Y-42626000D01*
X55909814Y-42626001D01*
X55911266Y-42626390D01*
X55935146Y-42636281D01*
X55936450Y-42637034D01*
X55948228Y-42639110D01*
X56002250Y-42667831D01*
X56029075Y-42722822D01*
X56018453Y-42783079D01*
X55981364Y-42818899D01*
X55982583Y-42820795D01*
X55976631Y-42824620D01*
X55976628Y-42824622D01*
X55976627Y-42824623D01*
X55954602Y-42843707D01*
X55939830Y-42856507D01*
X55883470Y-42880323D01*
X55823875Y-42866463D01*
X55810170Y-42856507D01*
X55799171Y-42846977D01*
X55773373Y-42824623D01*
X55773371Y-42824622D01*
X55642456Y-42764834D01*
X55535804Y-42749500D01*
X55535799Y-42749500D01*
X55464201Y-42749500D01*
X55464196Y-42749500D01*
X55357543Y-42764834D01*
X55226628Y-42824622D01*
X55189830Y-42856507D01*
X55133470Y-42880323D01*
X55073875Y-42866463D01*
X55060170Y-42856507D01*
X55049171Y-42846977D01*
X55023373Y-42824623D01*
X55023371Y-42824622D01*
X54892456Y-42764834D01*
X54785804Y-42749500D01*
X54785799Y-42749500D01*
X54714201Y-42749500D01*
X54714196Y-42749500D01*
X54607543Y-42764834D01*
X54476628Y-42824622D01*
X54367855Y-42918873D01*
X54290049Y-43039942D01*
X54290047Y-43039947D01*
X54258883Y-43146080D01*
X54224347Y-43196587D01*
X54166719Y-43217148D01*
X54109542Y-43200358D01*
X54109410Y-43200572D01*
X54108634Y-43200091D01*
X54108012Y-43199909D01*
X54105981Y-43198449D01*
X53947877Y-43100555D01*
X53947872Y-43100552D01*
X53774973Y-43033571D01*
X53774972Y-43033570D01*
X53774970Y-43033570D01*
X53592709Y-42999499D01*
X53590359Y-42999282D01*
X53589450Y-42998890D01*
X53588211Y-42998659D01*
X53588263Y-42998379D01*
X53534163Y-42975083D01*
X53502923Y-42922474D01*
X53500500Y-42900705D01*
X53500500Y-41248318D01*
X53519407Y-41190127D01*
X53529494Y-41178317D01*
X53546945Y-41160867D01*
X53612837Y-41046738D01*
X53646945Y-40919445D01*
X53646945Y-40800946D01*
X53665852Y-40742755D01*
X53715352Y-40706791D01*
X53745945Y-40701946D01*
X53923661Y-40701946D01*
X53981852Y-40720853D01*
G37*
%TD.AperFunction*%
%TA.AperFunction,Conductor*%
G36*
X55274195Y-36519407D02*
G01*
X55310159Y-36568907D01*
X55315004Y-36599500D01*
X55315004Y-39451679D01*
X55296097Y-39509870D01*
X55286009Y-39521681D01*
X55268561Y-39539129D01*
X55268559Y-39539131D01*
X55268559Y-39539132D01*
X55202667Y-39653261D01*
X55168559Y-39780554D01*
X55168559Y-39912338D01*
X55202667Y-40039631D01*
X55268559Y-40153760D01*
X55361744Y-40246945D01*
X55475873Y-40312837D01*
X55603166Y-40346945D01*
X55603168Y-40346945D01*
X55734948Y-40346945D01*
X55734950Y-40346945D01*
X55862243Y-40312837D01*
X55976372Y-40246945D01*
X55993821Y-40229495D01*
X56048337Y-40201719D01*
X56063824Y-40200500D01*
X56270363Y-40200500D01*
X56328554Y-40219407D01*
X56364518Y-40268907D01*
X56364518Y-40330093D01*
X56330630Y-40378042D01*
X56226218Y-40458159D01*
X56226209Y-40458168D01*
X56177067Y-40522213D01*
X56126643Y-40556869D01*
X56098525Y-40560946D01*
X55421726Y-40560946D01*
X55363535Y-40542039D01*
X55351722Y-40531950D01*
X52858991Y-38039219D01*
X52831214Y-37984702D01*
X52829995Y-37969215D01*
X52829995Y-37591549D01*
X52848902Y-37533358D01*
X52893229Y-37499235D01*
X52985941Y-37463319D01*
X53155405Y-37358391D01*
X53302704Y-37224110D01*
X53422821Y-37065050D01*
X53511666Y-36886626D01*
X53566212Y-36694915D01*
X53566212Y-36694912D01*
X53567464Y-36690513D01*
X53569372Y-36691056D01*
X53594908Y-36644144D01*
X53650160Y-36617861D01*
X53688600Y-36620401D01*
X53787661Y-36646945D01*
X53787662Y-36646945D01*
X53919443Y-36646945D01*
X53919445Y-36646945D01*
X54046738Y-36612837D01*
X54160867Y-36546945D01*
X54178316Y-36529495D01*
X54232832Y-36501719D01*
X54248319Y-36500500D01*
X55216004Y-36500500D01*
X55274195Y-36519407D01*
G37*
%TD.AperFunction*%
%TD*%
%TA.AperFunction,NonConductor*%
G36*
X64890458Y-24799640D02*
G01*
X64890590Y-24799428D01*
X64891361Y-24799905D01*
X64891986Y-24800089D01*
X64894020Y-24801551D01*
X64894479Y-24801835D01*
X64894481Y-24801837D01*
X65052128Y-24899448D01*
X65225027Y-24966429D01*
X65407290Y-25000500D01*
X65407297Y-25000500D01*
X65409627Y-25000716D01*
X65410533Y-25001106D01*
X65411789Y-25001341D01*
X65411736Y-25001623D01*
X65465826Y-25024907D01*
X65497074Y-25077511D01*
X65499500Y-25099294D01*
X65499500Y-26651778D01*
X65480593Y-26709969D01*
X65470579Y-26721706D01*
X65454584Y-26737734D01*
X65454582Y-26737737D01*
X65389851Y-26847754D01*
X65354810Y-26970489D01*
X65354809Y-26970493D01*
X65351696Y-27098102D01*
X65380712Y-27222400D01*
X65380713Y-27222405D01*
X65381934Y-27224732D01*
X65440003Y-27335447D01*
X65525769Y-27429987D01*
X65525771Y-27429988D01*
X65525773Y-27429990D01*
X65632517Y-27499972D01*
X65632519Y-27499973D01*
X65753419Y-27540922D01*
X65880726Y-27550215D01*
X66006291Y-27527254D01*
X66044328Y-27509652D01*
X66085903Y-27500500D01*
X67900500Y-27500500D01*
X67958691Y-27519407D01*
X67994655Y-27568907D01*
X67999500Y-27599500D01*
X67999500Y-30734006D01*
X67980593Y-30792197D01*
X67931093Y-30828161D01*
X67869907Y-30828161D01*
X67821497Y-30793668D01*
X67820386Y-30792197D01*
X67802704Y-30768782D01*
X67655405Y-30634501D01*
X67639916Y-30624910D01*
X67485949Y-30529577D01*
X67485943Y-30529574D01*
X67485941Y-30529573D01*
X67457035Y-30518374D01*
X67393230Y-30493655D01*
X67345800Y-30455003D01*
X67329995Y-30401341D01*
X67329995Y-29706414D01*
X67330182Y-29702117D01*
X67333758Y-29661243D01*
X67323133Y-29621594D01*
X67322208Y-29617415D01*
X67315083Y-29577005D01*
X67315083Y-29577004D01*
X67314335Y-29575709D01*
X67304437Y-29551817D01*
X67304049Y-29550366D01*
X67280517Y-29516759D01*
X67278202Y-29513124D01*
X67257688Y-29477594D01*
X67250716Y-29471744D01*
X67226266Y-29451228D01*
X67223089Y-29448316D01*
X63152632Y-25377860D01*
X63149713Y-25374675D01*
X63123347Y-25343253D01*
X63119927Y-25340383D01*
X63087505Y-25288494D01*
X63091775Y-25227458D01*
X63131105Y-25180588D01*
X63190473Y-25165787D01*
X63224692Y-25174493D01*
X63226626Y-25175376D01*
X63226627Y-25175377D01*
X63282210Y-25200761D01*
X63357543Y-25235165D01*
X63464196Y-25250500D01*
X63464201Y-25250500D01*
X63535804Y-25250500D01*
X63624680Y-25237720D01*
X63642457Y-25235165D01*
X63773373Y-25175377D01*
X63810170Y-25143491D01*
X63866528Y-25119675D01*
X63926123Y-25133533D01*
X63939824Y-25143487D01*
X63976627Y-25175377D01*
X64032210Y-25200761D01*
X64107543Y-25235165D01*
X64214196Y-25250500D01*
X64214201Y-25250500D01*
X64285804Y-25250500D01*
X64374680Y-25237720D01*
X64392457Y-25235165D01*
X64523373Y-25175377D01*
X64632143Y-25081128D01*
X64709953Y-24960053D01*
X64741116Y-24853919D01*
X64775652Y-24803413D01*
X64833279Y-24782851D01*
X64890458Y-24799640D01*
G37*
%TD.AperFunction*%
%TA.AperFunction,NonConductor*%
G36*
X62220566Y-24800637D02*
G01*
X62257455Y-24849451D01*
X62258883Y-24853919D01*
X62285775Y-24945504D01*
X62284028Y-25006665D01*
X62246665Y-25055118D01*
X62228674Y-25064859D01*
X62211654Y-25071909D01*
X62211652Y-25071910D01*
X62086218Y-25168159D01*
X62086208Y-25168169D01*
X61989957Y-25293606D01*
X61989957Y-25293607D01*
X61929452Y-25439679D01*
X61929450Y-25439687D01*
X61908813Y-25596445D01*
X61908813Y-25596446D01*
X61929450Y-25753204D01*
X61929452Y-25753212D01*
X61989957Y-25899284D01*
X61989957Y-25899285D01*
X61989959Y-25899287D01*
X62086213Y-26024728D01*
X62211654Y-26120982D01*
X62357733Y-26181490D01*
X62475304Y-26196968D01*
X62514494Y-26202128D01*
X62514495Y-26202128D01*
X62514496Y-26202128D01*
X62545847Y-26198000D01*
X62671257Y-26181490D01*
X62817336Y-26120982D01*
X62837723Y-26105337D01*
X62895399Y-26084914D01*
X62954065Y-26102291D01*
X62967995Y-26113876D01*
X63156061Y-26301942D01*
X63183838Y-26356459D01*
X63174267Y-26416891D01*
X63131002Y-26460156D01*
X63086057Y-26470946D01*
X58260465Y-26470946D01*
X58202274Y-26452039D01*
X58181923Y-26432213D01*
X58132780Y-26368168D01*
X58132777Y-26368164D01*
X58132772Y-26368160D01*
X58132771Y-26368159D01*
X58061599Y-26313547D01*
X58007336Y-26271910D01*
X58007335Y-26271909D01*
X58007333Y-26271908D01*
X57861261Y-26211403D01*
X57861253Y-26211401D01*
X57704496Y-26190764D01*
X57704494Y-26190764D01*
X57547736Y-26211401D01*
X57547728Y-26211403D01*
X57401656Y-26271908D01*
X57401655Y-26271908D01*
X57276218Y-26368159D01*
X57276208Y-26368169D01*
X57179957Y-26493606D01*
X57179957Y-26493607D01*
X57119452Y-26639679D01*
X57119450Y-26639687D01*
X57098813Y-26796445D01*
X57098813Y-26796446D01*
X57119450Y-26953204D01*
X57119452Y-26953212D01*
X57179957Y-27099284D01*
X57179957Y-27099285D01*
X57274431Y-27222406D01*
X57276213Y-27224728D01*
X57401654Y-27320982D01*
X57401655Y-27320982D01*
X57401656Y-27320983D01*
X57547728Y-27381488D01*
X57547733Y-27381490D01*
X57665304Y-27396968D01*
X57704494Y-27402128D01*
X57704495Y-27402128D01*
X57704496Y-27402128D01*
X57735847Y-27398000D01*
X57861257Y-27381490D01*
X58007336Y-27320982D01*
X58132777Y-27224728D01*
X58181923Y-27160678D01*
X58232347Y-27126023D01*
X58260465Y-27121946D01*
X62999995Y-27121946D01*
X63058186Y-27140853D01*
X63094150Y-27190353D01*
X63098995Y-27220946D01*
X63098995Y-27558781D01*
X63099426Y-27568182D01*
X63099427Y-27568190D01*
X63099427Y-27568191D01*
X63101511Y-27590897D01*
X63101511Y-27590899D01*
X63108954Y-27615439D01*
X63107749Y-27676613D01*
X63070817Y-27725395D01*
X63063716Y-27729908D01*
X63023629Y-27753052D01*
X63023627Y-27753053D01*
X63023627Y-27753054D01*
X63006176Y-27770504D01*
X62951661Y-27798281D01*
X62936174Y-27799500D01*
X56063825Y-27799500D01*
X56005634Y-27780593D01*
X55993825Y-27770507D01*
X55976372Y-27753054D01*
X55862243Y-27687162D01*
X55734950Y-27653054D01*
X55603166Y-27653054D01*
X55475873Y-27687162D01*
X55361744Y-27753054D01*
X55268559Y-27846239D01*
X55202667Y-27960368D01*
X55168559Y-28087661D01*
X55168559Y-28219445D01*
X55202667Y-28346738D01*
X55268559Y-28460867D01*
X55286006Y-28478314D01*
X55313785Y-28532829D01*
X55315004Y-28548318D01*
X55315004Y-31400500D01*
X55296097Y-31458691D01*
X55246597Y-31494655D01*
X55216004Y-31499500D01*
X54248320Y-31499500D01*
X54190129Y-31480593D01*
X54178320Y-31470507D01*
X54160867Y-31453054D01*
X54046738Y-31387162D01*
X53919445Y-31353054D01*
X53787661Y-31353054D01*
X53689866Y-31379257D01*
X53628765Y-31376055D01*
X53581215Y-31337550D01*
X53566928Y-31301814D01*
X53566213Y-31297988D01*
X53566212Y-31297977D01*
X53511666Y-31106266D01*
X53422821Y-30927842D01*
X53302704Y-30768782D01*
X53155405Y-30634501D01*
X53070673Y-30582037D01*
X52985946Y-30529576D01*
X52985941Y-30529573D01*
X52800081Y-30457570D01*
X52800080Y-30457569D01*
X52800078Y-30457569D01*
X52604155Y-30420946D01*
X52404835Y-30420946D01*
X52208911Y-30457569D01*
X52023048Y-30529573D01*
X52023043Y-30529576D01*
X51853589Y-30634498D01*
X51853587Y-30634499D01*
X51853585Y-30634501D01*
X51706286Y-30768782D01*
X51706284Y-30768784D01*
X51586175Y-30927833D01*
X51586165Y-30927849D01*
X51509490Y-31081833D01*
X51497324Y-31106266D01*
X51465236Y-31219040D01*
X51431128Y-31269834D01*
X51373675Y-31290878D01*
X51370017Y-31290946D01*
X51099500Y-31290946D01*
X51041309Y-31272039D01*
X51005345Y-31222539D01*
X51000500Y-31191946D01*
X51000500Y-27599500D01*
X51019407Y-27541309D01*
X51068907Y-27505345D01*
X51099500Y-27500500D01*
X52914159Y-27500500D01*
X52955713Y-27509643D01*
X52993715Y-27527217D01*
X53029839Y-27533814D01*
X53119268Y-27550147D01*
X53246556Y-27540835D01*
X53367433Y-27499877D01*
X53474164Y-27429894D01*
X53559916Y-27335366D01*
X53619201Y-27222343D01*
X53648225Y-27098059D01*
X53645130Y-26970468D01*
X53610113Y-26847737D01*
X53545417Y-26737722D01*
X53545416Y-26737720D01*
X53529404Y-26721666D01*
X53501699Y-26667113D01*
X53500500Y-26651755D01*
X53500500Y-25099294D01*
X53519407Y-25041103D01*
X53568907Y-25005139D01*
X53590373Y-25000716D01*
X53592702Y-25000500D01*
X53592710Y-25000500D01*
X53774973Y-24966429D01*
X53947872Y-24899448D01*
X54105519Y-24801837D01*
X54105518Y-24801837D01*
X54109410Y-24799428D01*
X54110225Y-24800745D01*
X54162030Y-24782829D01*
X54220566Y-24800637D01*
X54257455Y-24849451D01*
X54258883Y-24853919D01*
X54290047Y-24960052D01*
X54290049Y-24960057D01*
X54367855Y-25081126D01*
X54367856Y-25081127D01*
X54367857Y-25081128D01*
X54476627Y-25175377D01*
X54532210Y-25200761D01*
X54607543Y-25235165D01*
X54714196Y-25250500D01*
X54714201Y-25250500D01*
X54785804Y-25250500D01*
X54874680Y-25237720D01*
X54892457Y-25235165D01*
X55023373Y-25175377D01*
X55060170Y-25143491D01*
X55116528Y-25119675D01*
X55176123Y-25133533D01*
X55189824Y-25143487D01*
X55226627Y-25175377D01*
X55282210Y-25200761D01*
X55357543Y-25235165D01*
X55464196Y-25250500D01*
X55464201Y-25250500D01*
X55535804Y-25250500D01*
X55624680Y-25237720D01*
X55642457Y-25235165D01*
X55773373Y-25175377D01*
X55810170Y-25143491D01*
X55866528Y-25119675D01*
X55926123Y-25133533D01*
X55939824Y-25143487D01*
X55976627Y-25175377D01*
X56032210Y-25200761D01*
X56107543Y-25235165D01*
X56214196Y-25250500D01*
X56214201Y-25250500D01*
X56285804Y-25250500D01*
X56374680Y-25237720D01*
X56392457Y-25235165D01*
X56523373Y-25175377D01*
X56632143Y-25081128D01*
X56709953Y-24960053D01*
X56741116Y-24853919D01*
X56775652Y-24803413D01*
X56833279Y-24782851D01*
X56890458Y-24799640D01*
X56890590Y-24799428D01*
X56891361Y-24799905D01*
X56891986Y-24800089D01*
X56894020Y-24801551D01*
X56894479Y-24801835D01*
X56894481Y-24801837D01*
X57052128Y-24899448D01*
X57225027Y-24966429D01*
X57407290Y-25000500D01*
X61592710Y-25000500D01*
X61774973Y-24966429D01*
X61947872Y-24899448D01*
X62105519Y-24801837D01*
X62105518Y-24801837D01*
X62109410Y-24799428D01*
X62110225Y-24800745D01*
X62162030Y-24782829D01*
X62220566Y-24800637D01*
G37*
%TD.AperFunction*%
%TA.AperFunction,Conductor*%
%TO.N,GND1*%
G36*
X36392143Y-35200905D02*
G01*
X36417561Y-35256561D01*
X36413088Y-35297314D01*
X36413599Y-35297464D01*
X36412933Y-35299729D01*
X36317353Y-35693718D01*
X36317350Y-35693736D01*
X36259654Y-36095017D01*
X36259652Y-36095030D01*
X36240362Y-36500000D01*
X36244444Y-36585692D01*
X36244500Y-36588048D01*
X36244500Y-36661950D01*
X36244444Y-36664306D01*
X36240362Y-36749999D01*
X36259652Y-37154969D01*
X36259654Y-37154982D01*
X36317350Y-37556263D01*
X36317353Y-37556281D01*
X36412933Y-37950269D01*
X36545538Y-38333403D01*
X36713960Y-38702198D01*
X36916666Y-39053294D01*
X36916675Y-39053308D01*
X37151852Y-39383567D01*
X37417335Y-39689951D01*
X37417345Y-39689962D01*
X37710768Y-39969740D01*
X38029456Y-40220359D01*
X38116049Y-40276009D01*
X38154780Y-40323375D01*
X38158272Y-40384461D01*
X38145675Y-40413025D01*
X37601760Y-41254732D01*
X37554297Y-41293344D01*
X37518610Y-41300000D01*
X36300000Y-41300000D01*
X36300000Y-41300001D01*
X36300000Y-41600500D01*
X36281093Y-41658691D01*
X36231593Y-41694655D01*
X36201000Y-41699500D01*
X35085896Y-41699500D01*
X35044340Y-41690356D01*
X35008537Y-41673798D01*
X35008535Y-41673797D01*
X35008534Y-41673797D01*
X34888060Y-41650581D01*
X34888056Y-41650581D01*
X34888055Y-41650581D01*
X34765544Y-41657151D01*
X34648244Y-41693117D01*
X34648242Y-41693117D01*
X34543106Y-41756346D01*
X34456350Y-41843103D01*
X34393115Y-41948247D01*
X34357150Y-42065544D01*
X34350580Y-42188056D01*
X34350581Y-42188060D01*
X34350581Y-42188061D01*
X34373797Y-42308535D01*
X34390356Y-42344341D01*
X34399500Y-42385896D01*
X34399500Y-42760458D01*
X34380593Y-42818649D01*
X34331093Y-42854613D01*
X34269907Y-42854613D01*
X34235670Y-42835279D01*
X34223373Y-42824623D01*
X34210292Y-42818649D01*
X34092456Y-42764834D01*
X33985804Y-42749500D01*
X33985799Y-42749500D01*
X33914201Y-42749500D01*
X33914196Y-42749500D01*
X33807543Y-42764834D01*
X33676628Y-42824622D01*
X33639830Y-42856507D01*
X33583470Y-42880323D01*
X33523875Y-42866463D01*
X33510170Y-42856507D01*
X33497162Y-42845236D01*
X33473373Y-42824623D01*
X33460292Y-42818649D01*
X33342456Y-42764834D01*
X33235804Y-42749500D01*
X33235799Y-42749500D01*
X33164201Y-42749500D01*
X33164196Y-42749500D01*
X33057543Y-42764834D01*
X32926628Y-42824622D01*
X32889830Y-42856507D01*
X32833470Y-42880323D01*
X32773875Y-42866463D01*
X32760170Y-42856507D01*
X32747162Y-42845236D01*
X32723373Y-42824623D01*
X32710292Y-42818649D01*
X32592456Y-42764834D01*
X32485804Y-42749500D01*
X32485799Y-42749500D01*
X32414201Y-42749500D01*
X32414196Y-42749500D01*
X32307543Y-42764834D01*
X32176628Y-42824622D01*
X32176627Y-42824623D01*
X32164329Y-42835278D01*
X32107971Y-42859095D01*
X32048376Y-42845236D01*
X32008308Y-42798995D01*
X32000500Y-42760458D01*
X32000500Y-41827952D01*
X32014984Y-41776396D01*
X35530828Y-36012910D01*
X35532463Y-36010407D01*
X35589546Y-35928576D01*
X35673759Y-35745301D01*
X35724350Y-35550053D01*
X35739735Y-35348944D01*
X35738771Y-35339423D01*
X35751722Y-35279627D01*
X35797348Y-35238860D01*
X35858222Y-35232698D01*
X35865163Y-35234466D01*
X35867540Y-35235163D01*
X35867543Y-35235165D01*
X35867546Y-35235165D01*
X35867548Y-35235166D01*
X35974196Y-35250500D01*
X35974201Y-35250500D01*
X36045804Y-35250500D01*
X36121983Y-35239546D01*
X36152457Y-35235165D01*
X36278081Y-35177793D01*
X36338865Y-35170819D01*
X36392143Y-35200905D01*
G37*
%TD.AperFunction*%
%TA.AperFunction,Conductor*%
G36*
X40647399Y-32010469D02*
G01*
X40841150Y-32020831D01*
X40843310Y-32020996D01*
X41049992Y-32041653D01*
X41052036Y-32041905D01*
X41244063Y-32070103D01*
X41356063Y-32091365D01*
X41449011Y-32109010D01*
X41451458Y-32109539D01*
X41585499Y-32142083D01*
X41639802Y-32155267D01*
X41840539Y-32212031D01*
X41843092Y-32212830D01*
X41935380Y-32244500D01*
X42026231Y-32275677D01*
X42045575Y-32283037D01*
X42221201Y-32349859D01*
X42223902Y-32350980D01*
X42400192Y-32430333D01*
X42431586Y-32445558D01*
X42587968Y-32521399D01*
X42590726Y-32522847D01*
X42758607Y-32617933D01*
X42937845Y-32725261D01*
X42940642Y-32727068D01*
X43027451Y-32787446D01*
X43098571Y-32836913D01*
X43267968Y-32959781D01*
X43270792Y-32961990D01*
X43406354Y-33076197D01*
X43417278Y-33085400D01*
X43575688Y-33223082D01*
X43578457Y-33225682D01*
X43632267Y-33280260D01*
X43711927Y-33361059D01*
X43734999Y-33384981D01*
X43858508Y-33513042D01*
X43861178Y-33516046D01*
X43979471Y-33660570D01*
X43991185Y-33675076D01*
X44114096Y-33827280D01*
X44116620Y-33830695D01*
X44211838Y-33971822D01*
X44338569Y-34160552D01*
X44338584Y-34160574D01*
X44338830Y-34160978D01*
X44356920Y-34190689D01*
X44360872Y-34196146D01*
X46403155Y-37543590D01*
X48447046Y-40893670D01*
X48972812Y-41756350D01*
X48985037Y-41776408D01*
X48999500Y-41827930D01*
X48999500Y-42760458D01*
X48980593Y-42818649D01*
X48931093Y-42854613D01*
X48869907Y-42854613D01*
X48835670Y-42835279D01*
X48823373Y-42824623D01*
X48810292Y-42818649D01*
X48692456Y-42764834D01*
X48585804Y-42749500D01*
X48585799Y-42749500D01*
X48514201Y-42749500D01*
X48514196Y-42749500D01*
X48407543Y-42764834D01*
X48276628Y-42824622D01*
X48239830Y-42856507D01*
X48183470Y-42880323D01*
X48123875Y-42866463D01*
X48110170Y-42856507D01*
X48097162Y-42845236D01*
X48073373Y-42824623D01*
X48060292Y-42818649D01*
X47942456Y-42764834D01*
X47835804Y-42749500D01*
X47835799Y-42749500D01*
X47764201Y-42749500D01*
X47764196Y-42749500D01*
X47657543Y-42764834D01*
X47526628Y-42824622D01*
X47489830Y-42856507D01*
X47433470Y-42880323D01*
X47373875Y-42866463D01*
X47360170Y-42856507D01*
X47347162Y-42845236D01*
X47323373Y-42824623D01*
X47310292Y-42818649D01*
X47192456Y-42764834D01*
X47085804Y-42749500D01*
X47085799Y-42749500D01*
X47014201Y-42749500D01*
X47014196Y-42749500D01*
X46907543Y-42764834D01*
X46776628Y-42824622D01*
X46776627Y-42824623D01*
X46764329Y-42835278D01*
X46707971Y-42859095D01*
X46648376Y-42845236D01*
X46608308Y-42798995D01*
X46600500Y-42760458D01*
X46600500Y-42385893D01*
X46609644Y-42344337D01*
X46626202Y-42308534D01*
X46649418Y-42188061D01*
X46642849Y-42065546D01*
X46606883Y-41948246D01*
X46543650Y-41843105D01*
X46456895Y-41756350D01*
X46445120Y-41749268D01*
X46351760Y-41693119D01*
X46351754Y-41693117D01*
X46234454Y-41657152D01*
X46111944Y-41650582D01*
X46111943Y-41650582D01*
X46111940Y-41650582D01*
X46031624Y-41666059D01*
X45991464Y-41673798D01*
X45976773Y-41680593D01*
X45955661Y-41690356D01*
X45914107Y-41699500D01*
X44799000Y-41699500D01*
X44740809Y-41680593D01*
X44704845Y-41631093D01*
X44700000Y-41600500D01*
X44700000Y-41300001D01*
X44700000Y-41300000D01*
X44699999Y-41300000D01*
X43481390Y-41300000D01*
X43423199Y-41281093D01*
X43398240Y-41254732D01*
X42991515Y-40625329D01*
X42854725Y-40413648D01*
X42839024Y-40354514D01*
X42861079Y-40297442D01*
X42884346Y-40276638D01*
X42971920Y-40220359D01*
X43290608Y-39969740D01*
X43584031Y-39689962D01*
X43849530Y-39383559D01*
X44084702Y-39053306D01*
X44287417Y-38702194D01*
X44455838Y-38333403D01*
X44588441Y-37950273D01*
X44684024Y-37556272D01*
X44741723Y-37154970D01*
X44761014Y-36750000D01*
X44755556Y-36635420D01*
X44755500Y-36633064D01*
X44755500Y-36616934D01*
X44755556Y-36614578D01*
X44756932Y-36585692D01*
X44761014Y-36500000D01*
X44741723Y-36095030D01*
X44684024Y-35693728D01*
X44679396Y-35674652D01*
X44588442Y-35299730D01*
X44571403Y-35250500D01*
X44455838Y-34916597D01*
X44311576Y-34600706D01*
X44287415Y-34547801D01*
X44084709Y-34196705D01*
X44084700Y-34196691D01*
X43969461Y-34034861D01*
X43849530Y-33866441D01*
X43849526Y-33866437D01*
X43849523Y-33866432D01*
X43584040Y-33560048D01*
X43584037Y-33560045D01*
X43584031Y-33560038D01*
X43290608Y-33280260D01*
X42971920Y-33029641D01*
X42971915Y-33029637D01*
X42630852Y-32810449D01*
X42270494Y-32624672D01*
X42270486Y-32624668D01*
X41894102Y-32473987D01*
X41505099Y-32359766D01*
X41106995Y-32283037D01*
X40703402Y-32244500D01*
X40297974Y-32244500D01*
X39894380Y-32283037D01*
X39496278Y-32359766D01*
X39496275Y-32359766D01*
X39107273Y-32473987D01*
X38730889Y-32624668D01*
X38730881Y-32624672D01*
X38370523Y-32810449D01*
X38029460Y-33029637D01*
X37761839Y-33240097D01*
X37710768Y-33280260D01*
X37460145Y-33519229D01*
X37417338Y-33560045D01*
X37417335Y-33560048D01*
X37151852Y-33866433D01*
X37151847Y-33866439D01*
X37151846Y-33866441D01*
X37135106Y-33889949D01*
X37058501Y-33997525D01*
X37009345Y-34033958D01*
X36948163Y-34034540D01*
X36898323Y-33999049D01*
X36882868Y-33967990D01*
X36877001Y-33948009D01*
X36859953Y-33889947D01*
X36828444Y-33840918D01*
X36818111Y-33824839D01*
X36802556Y-33765664D01*
X36824755Y-33708648D01*
X36860361Y-33681220D01*
X36960963Y-33635405D01*
X37128364Y-33519228D01*
X37172442Y-33475084D01*
X37176150Y-33473191D01*
X37200027Y-33447487D01*
X37200028Y-33447488D01*
X37200368Y-33447122D01*
X37362372Y-33286783D01*
X37483220Y-33167705D01*
X37486315Y-33164906D01*
X37651440Y-33027998D01*
X37795913Y-32909814D01*
X37799030Y-32907468D01*
X37972915Y-32787416D01*
X38130471Y-32681178D01*
X38133666Y-32679198D01*
X38316264Y-32575550D01*
X38484284Y-32483569D01*
X38487405Y-32482005D01*
X38677768Y-32395094D01*
X38854378Y-32318650D01*
X38857467Y-32317437D01*
X39054391Y-32247709D01*
X39237774Y-32187729D01*
X39240756Y-32186859D01*
X39442869Y-32134751D01*
X39631382Y-32091857D01*
X39634164Y-32091310D01*
X39840027Y-32057171D01*
X40031995Y-32031812D01*
X40034598Y-32031540D01*
X40242626Y-32015626D01*
X40436314Y-32008076D01*
X40438763Y-32008043D01*
X40647399Y-32010469D01*
G37*
%TD.AperFunction*%
%TD*%
%TA.AperFunction,Conductor*%
%TO.N,GND3*%
G36*
X38226123Y-25133533D02*
G01*
X38239824Y-25143487D01*
X38276627Y-25175377D01*
X38407543Y-25235165D01*
X38514196Y-25250500D01*
X38514201Y-25250500D01*
X38585804Y-25250500D01*
X38674680Y-25237720D01*
X38692457Y-25235165D01*
X38823373Y-25175377D01*
X38835669Y-25164721D01*
X38892026Y-25140904D01*
X38951621Y-25154761D01*
X38991690Y-25201001D01*
X38999500Y-25239541D01*
X38999500Y-26172081D01*
X38985049Y-26223583D01*
X35431614Y-32057173D01*
X35428415Y-32059919D01*
X35361146Y-32179415D01*
X35294485Y-32371964D01*
X35294484Y-32371968D01*
X35263238Y-32573323D01*
X35265930Y-32679272D01*
X35248506Y-32737924D01*
X35199936Y-32775133D01*
X35139075Y-32776777D01*
X35132458Y-32774834D01*
X35025804Y-32759500D01*
X35025799Y-32759500D01*
X34954201Y-32759500D01*
X34954196Y-32759500D01*
X34847543Y-32774834D01*
X34716628Y-32834622D01*
X34607855Y-32928873D01*
X34530049Y-33049942D01*
X34530046Y-33049949D01*
X34489500Y-33188035D01*
X34489500Y-33339041D01*
X34486692Y-33339041D01*
X34478345Y-33387258D01*
X34434464Y-33429897D01*
X34431916Y-33431105D01*
X34336628Y-33474622D01*
X34227855Y-33568873D01*
X34150049Y-33689942D01*
X34150046Y-33689949D01*
X34109500Y-33828035D01*
X34109500Y-33971964D01*
X34150046Y-34110050D01*
X34150049Y-34110057D01*
X34191177Y-34174053D01*
X34206732Y-34233228D01*
X34184533Y-34290244D01*
X34153530Y-34315430D01*
X33987142Y-34401861D01*
X33827344Y-34524930D01*
X33827338Y-34524935D01*
X33760827Y-34598342D01*
X33758414Y-34600825D01*
X33610049Y-34743172D01*
X33459354Y-34887056D01*
X33456025Y-34889963D01*
X33289299Y-35022869D01*
X33127596Y-35149867D01*
X33124201Y-35152308D01*
X32945435Y-35269762D01*
X32772648Y-35380327D01*
X32769246Y-35382318D01*
X32580161Y-35483076D01*
X32397654Y-35576406D01*
X32394296Y-35577967D01*
X32196552Y-35661084D01*
X32005930Y-35736378D01*
X32002665Y-35737537D01*
X31797968Y-35802251D01*
X31600931Y-35858836D01*
X31597803Y-35859625D01*
X31387895Y-35905353D01*
X31186263Y-35942696D01*
X31183312Y-35943151D01*
X30969951Y-35969484D01*
X30765570Y-35987228D01*
X30762828Y-35987389D01*
X30547840Y-35994078D01*
X30342570Y-35992040D01*
X30340063Y-35991951D01*
X30134872Y-35979502D01*
X30126394Y-35978987D01*
X30124135Y-35978798D01*
X29921032Y-35957096D01*
X29918781Y-35956803D01*
X29707176Y-35924324D01*
X29704707Y-35923881D01*
X29503672Y-35882506D01*
X29294933Y-35830538D01*
X29292286Y-35829800D01*
X29096274Y-35769273D01*
X28893288Y-35698451D01*
X28890498Y-35697382D01*
X28701299Y-35618273D01*
X28505814Y-35529234D01*
X28502924Y-35527802D01*
X28322279Y-35430855D01*
X28135894Y-35324360D01*
X28132948Y-35322537D01*
X27962499Y-35208639D01*
X27786809Y-35085635D01*
X27783871Y-35083410D01*
X27625177Y-34953602D01*
X27544285Y-34885121D01*
X27461665Y-34815176D01*
X27458761Y-34812513D01*
X27313269Y-34667967D01*
X27163324Y-34515357D01*
X27160522Y-34512254D01*
X27069013Y-34401861D01*
X27029277Y-34353924D01*
X27007965Y-34327832D01*
X26894420Y-34188817D01*
X26891779Y-34185272D01*
X26774926Y-34012847D01*
X26731210Y-33948005D01*
X26659615Y-33841812D01*
X26658398Y-33839913D01*
X26644924Y-33817783D01*
X26644584Y-33817574D01*
X26635526Y-33805034D01*
X26599038Y-33745165D01*
X24063625Y-29585045D01*
X22014963Y-26223590D01*
X22000500Y-26172068D01*
X22000500Y-25239541D01*
X22019407Y-25181350D01*
X22068907Y-25145386D01*
X22130093Y-25145386D01*
X22164328Y-25164720D01*
X22176627Y-25175377D01*
X22307543Y-25235165D01*
X22414196Y-25250500D01*
X22414201Y-25250500D01*
X22485804Y-25250500D01*
X22574680Y-25237720D01*
X22592457Y-25235165D01*
X22723373Y-25175377D01*
X22760170Y-25143491D01*
X22816528Y-25119675D01*
X22876123Y-25133533D01*
X22889824Y-25143487D01*
X22926627Y-25175377D01*
X23057543Y-25235165D01*
X23164196Y-25250500D01*
X23164201Y-25250500D01*
X23235804Y-25250500D01*
X23324680Y-25237720D01*
X23342457Y-25235165D01*
X23473373Y-25175377D01*
X23510170Y-25143491D01*
X23566528Y-25119675D01*
X23626123Y-25133533D01*
X23639824Y-25143487D01*
X23676627Y-25175377D01*
X23807543Y-25235165D01*
X23914196Y-25250500D01*
X23914201Y-25250500D01*
X23985804Y-25250500D01*
X24074680Y-25237720D01*
X24092457Y-25235165D01*
X24223373Y-25175377D01*
X24235669Y-25164721D01*
X24292026Y-25140904D01*
X24351621Y-25154761D01*
X24391690Y-25201001D01*
X24399500Y-25239541D01*
X24399500Y-25614103D01*
X24390356Y-25655658D01*
X24373798Y-25691460D01*
X24369885Y-25711764D01*
X24350581Y-25811940D01*
X24350581Y-25811943D01*
X24350581Y-25811944D01*
X24357151Y-25934455D01*
X24393117Y-26051755D01*
X24393117Y-26051757D01*
X24456345Y-26156891D01*
X24456347Y-26156893D01*
X24456349Y-26156896D01*
X24543104Y-26243651D01*
X24543106Y-26243652D01*
X24543108Y-26243654D01*
X24648243Y-26306882D01*
X24648245Y-26306883D01*
X24765546Y-26342849D01*
X24888060Y-26349419D01*
X25008534Y-26326203D01*
X25044340Y-26309643D01*
X25085895Y-26300500D01*
X27398106Y-26300500D01*
X27456297Y-26319407D01*
X27492261Y-26368907D01*
X27497106Y-26399500D01*
X27497106Y-26547816D01*
X27478199Y-26606007D01*
X27447609Y-26633551D01*
X27424651Y-26646806D01*
X27398292Y-26678219D01*
X27395374Y-26681403D01*
X26288519Y-27788259D01*
X26285335Y-27791177D01*
X26253913Y-27817543D01*
X26253912Y-27817545D01*
X26233398Y-27853076D01*
X26231078Y-27856717D01*
X26207552Y-27890317D01*
X26207548Y-27890325D01*
X26207157Y-27891787D01*
X26197276Y-27915641D01*
X26196520Y-27916949D01*
X26196516Y-27916961D01*
X26189393Y-27957350D01*
X26188459Y-27961565D01*
X26177842Y-28001188D01*
X26177842Y-28001194D01*
X26181418Y-28042073D01*
X26181606Y-28046374D01*
X26181606Y-28444029D01*
X26162699Y-28502220D01*
X26142874Y-28522571D01*
X26078824Y-28571718D01*
X25982568Y-28697161D01*
X25982568Y-28697162D01*
X25922063Y-28843234D01*
X25922061Y-28843242D01*
X25901424Y-29000000D01*
X25901424Y-29000001D01*
X25922061Y-29156759D01*
X25922063Y-29156767D01*
X25982568Y-29302839D01*
X25982568Y-29302840D01*
X25982570Y-29302842D01*
X26078824Y-29428283D01*
X26204265Y-29524537D01*
X26350344Y-29585045D01*
X26467915Y-29600523D01*
X26507105Y-29605683D01*
X26507106Y-29605683D01*
X26507107Y-29605683D01*
X26538458Y-29601555D01*
X26663868Y-29585045D01*
X26809947Y-29524537D01*
X26935388Y-29428283D01*
X27031642Y-29302842D01*
X27092150Y-29156763D01*
X27112788Y-29000001D01*
X27092150Y-28843239D01*
X27031643Y-28697162D01*
X27031643Y-28697161D01*
X26935387Y-28571718D01*
X26871338Y-28522571D01*
X26836683Y-28472146D01*
X26832606Y-28444029D01*
X26832606Y-28205835D01*
X26851513Y-28147644D01*
X26861602Y-28135832D01*
X27315370Y-27682063D01*
X27369887Y-27654285D01*
X27430319Y-27663856D01*
X27473584Y-27707121D01*
X27483155Y-27767553D01*
X27471111Y-27801564D01*
X27437164Y-27860364D01*
X27437162Y-27860367D01*
X27437162Y-27860369D01*
X27403054Y-27987662D01*
X27403054Y-28119446D01*
X27437162Y-28246739D01*
X27503054Y-28360868D01*
X27520502Y-28378316D01*
X27548281Y-28432831D01*
X27549500Y-28448320D01*
X27549500Y-32106670D01*
X27545584Y-32134239D01*
X27533707Y-32175201D01*
X27527251Y-32288841D01*
X27536839Y-32344776D01*
X27546483Y-32401032D01*
X27568296Y-32453160D01*
X27590419Y-32506030D01*
X27656816Y-32598481D01*
X27690467Y-32628145D01*
X27706301Y-32645918D01*
X27796077Y-32775133D01*
X27798196Y-32778182D01*
X28013720Y-33029641D01*
X28023488Y-33041037D01*
X28274241Y-33279728D01*
X28274245Y-33279731D01*
X28274246Y-33279732D01*
X28397973Y-33375623D01*
X28490226Y-33447122D01*
X28547879Y-33491804D01*
X28547886Y-33491808D01*
X28841577Y-33675076D01*
X28841579Y-33675077D01*
X28841584Y-33675080D01*
X29152315Y-33827662D01*
X29152319Y-33827663D01*
X29152328Y-33827668D01*
X29476933Y-33948009D01*
X29812056Y-34034861D01*
X29812058Y-34034861D01*
X29812061Y-34034862D01*
X29958116Y-34057257D01*
X30154251Y-34087332D01*
X30500000Y-34104883D01*
X30845749Y-34087332D01*
X31137870Y-34042539D01*
X31187938Y-34034862D01*
X31187938Y-34034861D01*
X31187944Y-34034861D01*
X31523067Y-33948009D01*
X31847672Y-33827668D01*
X32101385Y-33703084D01*
X32158415Y-33675080D01*
X32158415Y-33675079D01*
X32158423Y-33675076D01*
X32452125Y-33491801D01*
X32725759Y-33279728D01*
X32976512Y-33041037D01*
X33201805Y-32778181D01*
X33293648Y-32645989D01*
X33309454Y-32628242D01*
X33343190Y-32598489D01*
X33409570Y-32506026D01*
X33453502Y-32401022D01*
X33472743Y-32288837D01*
X33466313Y-32175196D01*
X33456646Y-32141819D01*
X33454408Y-32134092D01*
X33450500Y-32106551D01*
X33450500Y-28448319D01*
X33469407Y-28390128D01*
X33479494Y-28378318D01*
X33496945Y-28360868D01*
X33562837Y-28246739D01*
X33596945Y-28119446D01*
X33596945Y-27987662D01*
X33562837Y-27860369D01*
X33562807Y-27860317D01*
X33510369Y-27769490D01*
X33497106Y-27719991D01*
X33497106Y-27699335D01*
X33516013Y-27641144D01*
X33565513Y-27605180D01*
X33626699Y-27605180D01*
X33666110Y-27629331D01*
X34142610Y-28105831D01*
X34170387Y-28160348D01*
X34171606Y-28175835D01*
X34171606Y-28444029D01*
X34152699Y-28502220D01*
X34132874Y-28522571D01*
X34068824Y-28571718D01*
X33972568Y-28697161D01*
X33972568Y-28697162D01*
X33912063Y-28843234D01*
X33912061Y-28843242D01*
X33891424Y-29000000D01*
X33891424Y-29000001D01*
X33912061Y-29156759D01*
X33912063Y-29156767D01*
X33972568Y-29302839D01*
X33972568Y-29302840D01*
X33972570Y-29302842D01*
X34068824Y-29428283D01*
X34194265Y-29524537D01*
X34340344Y-29585045D01*
X34457915Y-29600523D01*
X34497105Y-29605683D01*
X34497106Y-29605683D01*
X34497107Y-29605683D01*
X34528458Y-29601555D01*
X34653868Y-29585045D01*
X34799947Y-29524537D01*
X34925388Y-29428283D01*
X35021642Y-29302842D01*
X35082150Y-29156763D01*
X35102788Y-29000001D01*
X35082150Y-28843239D01*
X35021643Y-28697162D01*
X35021643Y-28697161D01*
X34925387Y-28571718D01*
X34861338Y-28522571D01*
X34826683Y-28472146D01*
X34822606Y-28444029D01*
X34822606Y-28016374D01*
X34822793Y-28012073D01*
X34826370Y-27971194D01*
X34815746Y-27931549D01*
X34814816Y-27927349D01*
X34814274Y-27924274D01*
X34807694Y-27886956D01*
X34806946Y-27885660D01*
X34797048Y-27861768D01*
X34796660Y-27860317D01*
X34796658Y-27860314D01*
X34796657Y-27860312D01*
X34773131Y-27826713D01*
X34770809Y-27823069D01*
X34767620Y-27817546D01*
X34750300Y-27787546D01*
X34750299Y-27787544D01*
X34720102Y-27762207D01*
X34718871Y-27761174D01*
X34715694Y-27758262D01*
X33638847Y-26681415D01*
X33635928Y-26678230D01*
X33609562Y-26646807D01*
X33586601Y-26633551D01*
X33574024Y-26626289D01*
X33570386Y-26623971D01*
X33539321Y-26602218D01*
X33502499Y-26553353D01*
X33497106Y-26521123D01*
X33497106Y-26399500D01*
X33516013Y-26341309D01*
X33565513Y-26305345D01*
X33596106Y-26300500D01*
X35914095Y-26300500D01*
X35955671Y-26309653D01*
X35991466Y-26326218D01*
X36111949Y-26349463D01*
X36234479Y-26342912D01*
X36351797Y-26306954D01*
X36456954Y-26243720D01*
X36543719Y-26156954D01*
X36606954Y-26051798D01*
X36642912Y-25934480D01*
X36649463Y-25811950D01*
X36649461Y-25811940D01*
X36626220Y-25691473D01*
X36626218Y-25691470D01*
X36626218Y-25691466D01*
X36609652Y-25655668D01*
X36600500Y-25614094D01*
X36600500Y-25239541D01*
X36619407Y-25181350D01*
X36668907Y-25145386D01*
X36730093Y-25145386D01*
X36764328Y-25164720D01*
X36776627Y-25175377D01*
X36907543Y-25235165D01*
X37014196Y-25250500D01*
X37014201Y-25250500D01*
X37085804Y-25250500D01*
X37174680Y-25237720D01*
X37192457Y-25235165D01*
X37323373Y-25175377D01*
X37360170Y-25143491D01*
X37416528Y-25119675D01*
X37476123Y-25133533D01*
X37489824Y-25143487D01*
X37526627Y-25175377D01*
X37657543Y-25235165D01*
X37764196Y-25250500D01*
X37764201Y-25250500D01*
X37835804Y-25250500D01*
X37924680Y-25237720D01*
X37942457Y-25235165D01*
X38073373Y-25175377D01*
X38110170Y-25143491D01*
X38166528Y-25119675D01*
X38226123Y-25133533D01*
G37*
%TD.AperFunction*%
%TA.AperFunction,Conductor*%
G36*
X31455797Y-26319407D02*
G01*
X31491761Y-26368907D01*
X31496606Y-26399500D01*
X31496606Y-27519748D01*
X31496867Y-27522399D01*
X31497106Y-27527256D01*
X31497106Y-27600500D01*
X31478199Y-27658691D01*
X31428699Y-27694655D01*
X31398106Y-27699500D01*
X29596106Y-27699500D01*
X29537915Y-27680593D01*
X29501951Y-27631093D01*
X29497106Y-27600500D01*
X29497106Y-27527256D01*
X29497345Y-27522399D01*
X29497606Y-27519748D01*
X29497606Y-26399500D01*
X29516513Y-26341309D01*
X29566013Y-26305345D01*
X29596606Y-26300500D01*
X31397606Y-26300500D01*
X31455797Y-26319407D01*
G37*
%TD.AperFunction*%
%TD*%
%TA.AperFunction,Conductor*%
%TO.N,GND1*%
G36*
X36392143Y-60200905D02*
G01*
X36417561Y-60256561D01*
X36413088Y-60297314D01*
X36413599Y-60297464D01*
X36412933Y-60299729D01*
X36317353Y-60693718D01*
X36317350Y-60693736D01*
X36259654Y-61095017D01*
X36259652Y-61095030D01*
X36240362Y-61500000D01*
X36244444Y-61585692D01*
X36244500Y-61588048D01*
X36244500Y-61661950D01*
X36244444Y-61664306D01*
X36240362Y-61749999D01*
X36259652Y-62154969D01*
X36259654Y-62154982D01*
X36317350Y-62556263D01*
X36317353Y-62556281D01*
X36412933Y-62950269D01*
X36545538Y-63333403D01*
X36713960Y-63702198D01*
X36916666Y-64053294D01*
X36916675Y-64053308D01*
X37151852Y-64383567D01*
X37417335Y-64689951D01*
X37417345Y-64689962D01*
X37710768Y-64969740D01*
X38029456Y-65220359D01*
X38116049Y-65276009D01*
X38154780Y-65323375D01*
X38158272Y-65384461D01*
X38145675Y-65413025D01*
X37601760Y-66254732D01*
X37554297Y-66293344D01*
X37518610Y-66300000D01*
X36300000Y-66300000D01*
X36300000Y-66300001D01*
X36300000Y-66600500D01*
X36281093Y-66658691D01*
X36231593Y-66694655D01*
X36201000Y-66699500D01*
X35085896Y-66699500D01*
X35044340Y-66690356D01*
X35008537Y-66673798D01*
X35008535Y-66673797D01*
X35008534Y-66673797D01*
X34888060Y-66650581D01*
X34888056Y-66650581D01*
X34888055Y-66650581D01*
X34765544Y-66657151D01*
X34648244Y-66693117D01*
X34648242Y-66693117D01*
X34543106Y-66756346D01*
X34456350Y-66843103D01*
X34393115Y-66948247D01*
X34357150Y-67065544D01*
X34350580Y-67188056D01*
X34350581Y-67188060D01*
X34350581Y-67188061D01*
X34373797Y-67308535D01*
X34390356Y-67344341D01*
X34399500Y-67385896D01*
X34399500Y-67760458D01*
X34380593Y-67818649D01*
X34331093Y-67854613D01*
X34269907Y-67854613D01*
X34235670Y-67835279D01*
X34223373Y-67824623D01*
X34210292Y-67818649D01*
X34092456Y-67764834D01*
X33985804Y-67749500D01*
X33985799Y-67749500D01*
X33914201Y-67749500D01*
X33914196Y-67749500D01*
X33807543Y-67764834D01*
X33676628Y-67824622D01*
X33639830Y-67856507D01*
X33583470Y-67880323D01*
X33523875Y-67866463D01*
X33510170Y-67856507D01*
X33497162Y-67845236D01*
X33473373Y-67824623D01*
X33460292Y-67818649D01*
X33342456Y-67764834D01*
X33235804Y-67749500D01*
X33235799Y-67749500D01*
X33164201Y-67749500D01*
X33164196Y-67749500D01*
X33057543Y-67764834D01*
X32926628Y-67824622D01*
X32889830Y-67856507D01*
X32833470Y-67880323D01*
X32773875Y-67866463D01*
X32760170Y-67856507D01*
X32747162Y-67845236D01*
X32723373Y-67824623D01*
X32710292Y-67818649D01*
X32592456Y-67764834D01*
X32485804Y-67749500D01*
X32485799Y-67749500D01*
X32414201Y-67749500D01*
X32414196Y-67749500D01*
X32307543Y-67764834D01*
X32176628Y-67824622D01*
X32176627Y-67824623D01*
X32164329Y-67835278D01*
X32107971Y-67859095D01*
X32048376Y-67845236D01*
X32008308Y-67798995D01*
X32000500Y-67760458D01*
X32000500Y-66827952D01*
X32014984Y-66776396D01*
X35530828Y-61012910D01*
X35532463Y-61010407D01*
X35589546Y-60928576D01*
X35673759Y-60745301D01*
X35724350Y-60550053D01*
X35739735Y-60348944D01*
X35738771Y-60339423D01*
X35751722Y-60279627D01*
X35797348Y-60238860D01*
X35858222Y-60232698D01*
X35865163Y-60234466D01*
X35867540Y-60235163D01*
X35867543Y-60235165D01*
X35867546Y-60235165D01*
X35867548Y-60235166D01*
X35974196Y-60250500D01*
X35974201Y-60250500D01*
X36045804Y-60250500D01*
X36121983Y-60239546D01*
X36152457Y-60235165D01*
X36278081Y-60177793D01*
X36338865Y-60170819D01*
X36392143Y-60200905D01*
G37*
%TD.AperFunction*%
%TA.AperFunction,Conductor*%
G36*
X40647395Y-57010467D02*
G01*
X40841132Y-57020828D01*
X40843355Y-57020999D01*
X41035221Y-57040175D01*
X41049860Y-57041639D01*
X41052127Y-57041917D01*
X41244086Y-57070106D01*
X41449048Y-57109014D01*
X41451456Y-57109536D01*
X41639836Y-57155275D01*
X41688833Y-57169130D01*
X41840527Y-57212026D01*
X41843064Y-57212818D01*
X42026243Y-57275679D01*
X42221205Y-57349859D01*
X42223904Y-57350979D01*
X42400196Y-57430333D01*
X42587952Y-57521389D01*
X42590732Y-57522848D01*
X42758640Y-57617949D01*
X42937830Y-57725248D01*
X42940631Y-57727058D01*
X43060525Y-57810449D01*
X43098639Y-57836959D01*
X43267949Y-57959765D01*
X43270779Y-57961979D01*
X43417312Y-58085427D01*
X43508711Y-58164866D01*
X43575691Y-58223082D01*
X43578458Y-58225680D01*
X43639300Y-58287391D01*
X43711981Y-58361111D01*
X43858500Y-58513032D01*
X43861177Y-58516043D01*
X43979545Y-58660659D01*
X44114112Y-58827297D01*
X44116630Y-58830705D01*
X44211934Y-58971961D01*
X44338574Y-59160556D01*
X44356924Y-59190694D01*
X44360876Y-59196150D01*
X46403155Y-62543589D01*
X48446871Y-65893383D01*
X48972812Y-66756350D01*
X48985037Y-66776408D01*
X48999500Y-66827930D01*
X48999500Y-67760458D01*
X48980593Y-67818649D01*
X48931093Y-67854613D01*
X48869907Y-67854613D01*
X48835670Y-67835279D01*
X48823373Y-67824623D01*
X48810292Y-67818649D01*
X48692456Y-67764834D01*
X48585804Y-67749500D01*
X48585799Y-67749500D01*
X48514201Y-67749500D01*
X48514196Y-67749500D01*
X48407543Y-67764834D01*
X48276628Y-67824622D01*
X48239830Y-67856507D01*
X48183470Y-67880323D01*
X48123875Y-67866463D01*
X48110170Y-67856507D01*
X48097162Y-67845236D01*
X48073373Y-67824623D01*
X48060292Y-67818649D01*
X47942456Y-67764834D01*
X47835804Y-67749500D01*
X47835799Y-67749500D01*
X47764201Y-67749500D01*
X47764196Y-67749500D01*
X47657543Y-67764834D01*
X47526628Y-67824622D01*
X47489830Y-67856507D01*
X47433470Y-67880323D01*
X47373875Y-67866463D01*
X47360170Y-67856507D01*
X47347162Y-67845236D01*
X47323373Y-67824623D01*
X47310292Y-67818649D01*
X47192456Y-67764834D01*
X47085804Y-67749500D01*
X47085799Y-67749500D01*
X47014201Y-67749500D01*
X47014196Y-67749500D01*
X46907543Y-67764834D01*
X46776628Y-67824622D01*
X46776627Y-67824623D01*
X46764329Y-67835278D01*
X46707971Y-67859095D01*
X46648376Y-67845236D01*
X46608308Y-67798995D01*
X46600500Y-67760458D01*
X46600500Y-67385893D01*
X46609644Y-67344337D01*
X46626202Y-67308534D01*
X46649418Y-67188061D01*
X46642849Y-67065546D01*
X46606883Y-66948246D01*
X46543650Y-66843105D01*
X46456895Y-66756350D01*
X46445120Y-66749268D01*
X46351760Y-66693119D01*
X46351754Y-66693117D01*
X46234454Y-66657152D01*
X46111944Y-66650582D01*
X46111943Y-66650582D01*
X46111940Y-66650582D01*
X46031624Y-66666059D01*
X45991464Y-66673798D01*
X45976773Y-66680593D01*
X45955661Y-66690356D01*
X45914107Y-66699500D01*
X44799000Y-66699500D01*
X44740809Y-66680593D01*
X44704845Y-66631093D01*
X44700000Y-66600500D01*
X44700000Y-66300001D01*
X44700000Y-66300000D01*
X44699999Y-66300000D01*
X43481390Y-66300000D01*
X43423199Y-66281093D01*
X43398240Y-66254732D01*
X42991515Y-65625329D01*
X42854725Y-65413648D01*
X42839024Y-65354514D01*
X42861079Y-65297442D01*
X42884346Y-65276638D01*
X42971920Y-65220359D01*
X43290608Y-64969740D01*
X43584031Y-64689962D01*
X43849530Y-64383559D01*
X44084702Y-64053306D01*
X44287417Y-63702194D01*
X44455838Y-63333403D01*
X44588441Y-62950273D01*
X44684024Y-62556272D01*
X44741723Y-62154970D01*
X44761014Y-61750000D01*
X44755556Y-61635420D01*
X44755500Y-61633064D01*
X44755500Y-61616934D01*
X44755556Y-61614578D01*
X44756932Y-61585692D01*
X44761014Y-61500000D01*
X44741723Y-61095030D01*
X44684024Y-60693728D01*
X44673886Y-60651939D01*
X44588442Y-60299730D01*
X44581484Y-60279627D01*
X44455838Y-59916597D01*
X44311083Y-59599628D01*
X44287415Y-59547801D01*
X44084709Y-59196705D01*
X44084700Y-59196691D01*
X43969461Y-59034861D01*
X43849530Y-58866441D01*
X43849526Y-58866437D01*
X43849523Y-58866432D01*
X43584040Y-58560048D01*
X43584037Y-58560045D01*
X43584031Y-58560038D01*
X43290608Y-58280260D01*
X42971920Y-58029641D01*
X42971915Y-58029637D01*
X42630852Y-57810449D01*
X42270494Y-57624672D01*
X42270486Y-57624668D01*
X41894102Y-57473987D01*
X41505099Y-57359766D01*
X41106995Y-57283037D01*
X40703402Y-57244500D01*
X40297974Y-57244500D01*
X39894380Y-57283037D01*
X39496278Y-57359766D01*
X39496275Y-57359766D01*
X39107273Y-57473987D01*
X38730889Y-57624668D01*
X38730881Y-57624672D01*
X38370523Y-57810449D01*
X38029460Y-58029637D01*
X37780172Y-58225680D01*
X37710768Y-58280260D01*
X37460145Y-58519229D01*
X37417338Y-58560045D01*
X37417335Y-58560048D01*
X37151852Y-58866433D01*
X37151847Y-58866439D01*
X37151846Y-58866441D01*
X37135106Y-58889949D01*
X37058501Y-58997525D01*
X37009345Y-59033958D01*
X36948163Y-59034540D01*
X36898323Y-58999049D01*
X36882868Y-58967990D01*
X36877001Y-58948009D01*
X36859953Y-58889947D01*
X36828505Y-58841013D01*
X36818111Y-58824839D01*
X36802556Y-58765664D01*
X36824755Y-58708648D01*
X36860361Y-58681220D01*
X36960963Y-58635405D01*
X37128364Y-58519228D01*
X37172496Y-58475030D01*
X37176191Y-58473144D01*
X37200367Y-58447121D01*
X37235767Y-58412085D01*
X37361840Y-58287307D01*
X37483216Y-58167707D01*
X37486332Y-58164889D01*
X37651266Y-58028139D01*
X37795900Y-57909822D01*
X37799058Y-57907446D01*
X37972892Y-57787429D01*
X38130468Y-57681178D01*
X38133688Y-57679182D01*
X38316236Y-57575563D01*
X38484284Y-57483567D01*
X38487405Y-57482003D01*
X38677768Y-57395092D01*
X38854410Y-57318634D01*
X38857432Y-57317447D01*
X39054370Y-57247715D01*
X39237805Y-57187718D01*
X39240736Y-57186862D01*
X39442839Y-57134756D01*
X39631388Y-57091855D01*
X39634217Y-57091299D01*
X39840016Y-57057171D01*
X40031994Y-57031810D01*
X40034615Y-57031537D01*
X40242628Y-57015624D01*
X40436317Y-57008074D01*
X40438765Y-57008041D01*
X40647395Y-57010467D01*
G37*
%TD.AperFunction*%
%TD*%
%TA.AperFunction,Conductor*%
%TO.N,GND3*%
G36*
X38226123Y-50133533D02*
G01*
X38239824Y-50143487D01*
X38276627Y-50175377D01*
X38407543Y-50235165D01*
X38514196Y-50250500D01*
X38514201Y-50250500D01*
X38585804Y-50250500D01*
X38674680Y-50237720D01*
X38692457Y-50235165D01*
X38823373Y-50175377D01*
X38835669Y-50164721D01*
X38892026Y-50140904D01*
X38951621Y-50154761D01*
X38991690Y-50201001D01*
X38999500Y-50239541D01*
X38999500Y-51172081D01*
X38985049Y-51223583D01*
X35431614Y-57057173D01*
X35428415Y-57059919D01*
X35361146Y-57179415D01*
X35294485Y-57371964D01*
X35294484Y-57371968D01*
X35263238Y-57573323D01*
X35265930Y-57679272D01*
X35248506Y-57737924D01*
X35199936Y-57775133D01*
X35139075Y-57776777D01*
X35132458Y-57774834D01*
X35025804Y-57759500D01*
X35025799Y-57759500D01*
X34954201Y-57759500D01*
X34954196Y-57759500D01*
X34847543Y-57774834D01*
X34716628Y-57834622D01*
X34607855Y-57928873D01*
X34530049Y-58049942D01*
X34530046Y-58049949D01*
X34489500Y-58188035D01*
X34489500Y-58339041D01*
X34486692Y-58339041D01*
X34478345Y-58387258D01*
X34434464Y-58429897D01*
X34431916Y-58431105D01*
X34336628Y-58474622D01*
X34227855Y-58568873D01*
X34150049Y-58689942D01*
X34150046Y-58689949D01*
X34109500Y-58828035D01*
X34109500Y-58971964D01*
X34150046Y-59110050D01*
X34150049Y-59110057D01*
X34191177Y-59174053D01*
X34206732Y-59233228D01*
X34184533Y-59290244D01*
X34153530Y-59315430D01*
X33987142Y-59401861D01*
X33827344Y-59524930D01*
X33827338Y-59524935D01*
X33760801Y-59598371D01*
X33758388Y-59600854D01*
X33610365Y-59742872D01*
X33459352Y-59887062D01*
X33456021Y-59889969D01*
X33289371Y-60022814D01*
X33127597Y-60149868D01*
X33124202Y-60152309D01*
X32945458Y-60269749D01*
X32772644Y-60380330D01*
X32769242Y-60382321D01*
X32580200Y-60483058D01*
X32397644Y-60576413D01*
X32394286Y-60577974D01*
X32196598Y-60661067D01*
X32005914Y-60736386D01*
X32002649Y-60737545D01*
X31798010Y-60802240D01*
X31600917Y-60858841D01*
X31597790Y-60859630D01*
X31387926Y-60905349D01*
X31186252Y-60942699D01*
X31183301Y-60943154D01*
X30969980Y-60969482D01*
X30765552Y-60987230D01*
X30762810Y-60987391D01*
X30547858Y-60994079D01*
X30342567Y-60992042D01*
X30340060Y-60991953D01*
X30126402Y-60978990D01*
X30124141Y-60978800D01*
X29921018Y-60957096D01*
X29918767Y-60956803D01*
X29707195Y-60924329D01*
X29704726Y-60923885D01*
X29503646Y-60882501D01*
X29294949Y-60830544D01*
X29292302Y-60829806D01*
X29096245Y-60769266D01*
X28893295Y-60698455D01*
X28890507Y-60697386D01*
X28701273Y-60618264D01*
X28505820Y-60529239D01*
X28502930Y-60527807D01*
X28322237Y-60430834D01*
X28135904Y-60324368D01*
X28132958Y-60322545D01*
X27962475Y-60208625D01*
X27935091Y-60189453D01*
X27786805Y-60085636D01*
X27783876Y-60083416D01*
X27625137Y-59953571D01*
X27581462Y-59916597D01*
X27461671Y-59815184D01*
X27458783Y-59812535D01*
X27388663Y-59742872D01*
X27313187Y-59667885D01*
X27163334Y-59515370D01*
X27160532Y-59512267D01*
X27029227Y-59353865D01*
X27002587Y-59321250D01*
X26894412Y-59188811D01*
X26891799Y-59185303D01*
X26774700Y-59012516D01*
X26659980Y-58842358D01*
X26659645Y-58841861D01*
X26658413Y-58839938D01*
X26644932Y-58817799D01*
X26644602Y-58817596D01*
X26635528Y-58805037D01*
X26586565Y-58724699D01*
X24063625Y-54585045D01*
X22014963Y-51223590D01*
X22000500Y-51172068D01*
X22000500Y-50239541D01*
X22019407Y-50181350D01*
X22068907Y-50145386D01*
X22130093Y-50145386D01*
X22164328Y-50164720D01*
X22176627Y-50175377D01*
X22307543Y-50235165D01*
X22414196Y-50250500D01*
X22414201Y-50250500D01*
X22485804Y-50250500D01*
X22574680Y-50237720D01*
X22592457Y-50235165D01*
X22723373Y-50175377D01*
X22760170Y-50143491D01*
X22816528Y-50119675D01*
X22876123Y-50133533D01*
X22889824Y-50143487D01*
X22926627Y-50175377D01*
X23057543Y-50235165D01*
X23164196Y-50250500D01*
X23164201Y-50250500D01*
X23235804Y-50250500D01*
X23324680Y-50237720D01*
X23342457Y-50235165D01*
X23473373Y-50175377D01*
X23510170Y-50143491D01*
X23566528Y-50119675D01*
X23626123Y-50133533D01*
X23639824Y-50143487D01*
X23676627Y-50175377D01*
X23807543Y-50235165D01*
X23914196Y-50250500D01*
X23914201Y-50250500D01*
X23985804Y-50250500D01*
X24074680Y-50237720D01*
X24092457Y-50235165D01*
X24223373Y-50175377D01*
X24235669Y-50164721D01*
X24292026Y-50140904D01*
X24351621Y-50154761D01*
X24391690Y-50201001D01*
X24399500Y-50239541D01*
X24399500Y-50614103D01*
X24390356Y-50655658D01*
X24373798Y-50691460D01*
X24369885Y-50711764D01*
X24350581Y-50811940D01*
X24350581Y-50811943D01*
X24350581Y-50811944D01*
X24357151Y-50934455D01*
X24393117Y-51051755D01*
X24393117Y-51051757D01*
X24456345Y-51156891D01*
X24456347Y-51156893D01*
X24456349Y-51156896D01*
X24543104Y-51243651D01*
X24543106Y-51243652D01*
X24543108Y-51243654D01*
X24648243Y-51306882D01*
X24648245Y-51306883D01*
X24765546Y-51342849D01*
X24888060Y-51349419D01*
X25008534Y-51326203D01*
X25044340Y-51309643D01*
X25085895Y-51300500D01*
X27398106Y-51300500D01*
X27456297Y-51319407D01*
X27492261Y-51368907D01*
X27497106Y-51399500D01*
X27497106Y-51547816D01*
X27478199Y-51606007D01*
X27447609Y-51633551D01*
X27424651Y-51646806D01*
X27398292Y-51678219D01*
X27395374Y-51681403D01*
X26288519Y-52788259D01*
X26285335Y-52791177D01*
X26253913Y-52817543D01*
X26253912Y-52817545D01*
X26233398Y-52853076D01*
X26231078Y-52856717D01*
X26207552Y-52890317D01*
X26207548Y-52890325D01*
X26207157Y-52891787D01*
X26197276Y-52915641D01*
X26196520Y-52916949D01*
X26196516Y-52916961D01*
X26189393Y-52957350D01*
X26188459Y-52961565D01*
X26177842Y-53001188D01*
X26177842Y-53001194D01*
X26181418Y-53042073D01*
X26181606Y-53046374D01*
X26181606Y-53444029D01*
X26162699Y-53502220D01*
X26142874Y-53522571D01*
X26078824Y-53571718D01*
X25982568Y-53697161D01*
X25982568Y-53697162D01*
X25922063Y-53843234D01*
X25922061Y-53843242D01*
X25901424Y-54000000D01*
X25901424Y-54000001D01*
X25922061Y-54156759D01*
X25922063Y-54156767D01*
X25982568Y-54302839D01*
X25982568Y-54302840D01*
X25982570Y-54302842D01*
X26078824Y-54428283D01*
X26204265Y-54524537D01*
X26350344Y-54585045D01*
X26467915Y-54600523D01*
X26507105Y-54605683D01*
X26507106Y-54605683D01*
X26507107Y-54605683D01*
X26538458Y-54601555D01*
X26663868Y-54585045D01*
X26809947Y-54524537D01*
X26935388Y-54428283D01*
X27031642Y-54302842D01*
X27092150Y-54156763D01*
X27112788Y-54000001D01*
X27092150Y-53843239D01*
X27031643Y-53697162D01*
X27031643Y-53697161D01*
X26935387Y-53571718D01*
X26871338Y-53522571D01*
X26836683Y-53472146D01*
X26832606Y-53444029D01*
X26832606Y-53205835D01*
X26851513Y-53147644D01*
X26861602Y-53135832D01*
X27315370Y-52682063D01*
X27369887Y-52654285D01*
X27430319Y-52663856D01*
X27473584Y-52707121D01*
X27483155Y-52767553D01*
X27471111Y-52801564D01*
X27437164Y-52860364D01*
X27437162Y-52860367D01*
X27437162Y-52860369D01*
X27403054Y-52987662D01*
X27403054Y-53119446D01*
X27437162Y-53246739D01*
X27503054Y-53360868D01*
X27520502Y-53378316D01*
X27548281Y-53432831D01*
X27549500Y-53448320D01*
X27549500Y-57106670D01*
X27545584Y-57134239D01*
X27533707Y-57175201D01*
X27530463Y-57232311D01*
X27527251Y-57288841D01*
X27536839Y-57344776D01*
X27546483Y-57401032D01*
X27568296Y-57453160D01*
X27590419Y-57506030D01*
X27656816Y-57598481D01*
X27690467Y-57628145D01*
X27706301Y-57645918D01*
X27796077Y-57775133D01*
X27798196Y-57778182D01*
X28013720Y-58029641D01*
X28023488Y-58041037D01*
X28274241Y-58279728D01*
X28274245Y-58279731D01*
X28274246Y-58279732D01*
X28397975Y-58375625D01*
X28490697Y-58447487D01*
X28547879Y-58491804D01*
X28547886Y-58491808D01*
X28841577Y-58675076D01*
X28841579Y-58675077D01*
X28841584Y-58675080D01*
X29152315Y-58827662D01*
X29152319Y-58827663D01*
X29152328Y-58827668D01*
X29476933Y-58948009D01*
X29812056Y-59034861D01*
X29812058Y-59034861D01*
X29812061Y-59034862D01*
X29958116Y-59057257D01*
X30154251Y-59087332D01*
X30500000Y-59104883D01*
X30845749Y-59087332D01*
X31137870Y-59042539D01*
X31187938Y-59034862D01*
X31187938Y-59034861D01*
X31187944Y-59034861D01*
X31523067Y-58948009D01*
X31847672Y-58827668D01*
X32101385Y-58703084D01*
X32158415Y-58675080D01*
X32158415Y-58675079D01*
X32158423Y-58675076D01*
X32452125Y-58491801D01*
X32725759Y-58279728D01*
X32976512Y-58041037D01*
X33201805Y-57778181D01*
X33293648Y-57645989D01*
X33309454Y-57628242D01*
X33343190Y-57598489D01*
X33409570Y-57506026D01*
X33453502Y-57401022D01*
X33472743Y-57288837D01*
X33466313Y-57175196D01*
X33456645Y-57141817D01*
X33454408Y-57134092D01*
X33450500Y-57106551D01*
X33450500Y-53448319D01*
X33469407Y-53390128D01*
X33479494Y-53378318D01*
X33496945Y-53360868D01*
X33562837Y-53246739D01*
X33596945Y-53119446D01*
X33596945Y-52987662D01*
X33562837Y-52860369D01*
X33562807Y-52860317D01*
X33510369Y-52769490D01*
X33497106Y-52719991D01*
X33497106Y-52699335D01*
X33516013Y-52641144D01*
X33565513Y-52605180D01*
X33626699Y-52605180D01*
X33666110Y-52629331D01*
X34142610Y-53105831D01*
X34170387Y-53160348D01*
X34171606Y-53175835D01*
X34171606Y-53444029D01*
X34152699Y-53502220D01*
X34132874Y-53522571D01*
X34068824Y-53571718D01*
X33972568Y-53697161D01*
X33972568Y-53697162D01*
X33912063Y-53843234D01*
X33912061Y-53843242D01*
X33891424Y-54000000D01*
X33891424Y-54000001D01*
X33912061Y-54156759D01*
X33912063Y-54156767D01*
X33972568Y-54302839D01*
X33972568Y-54302840D01*
X33972570Y-54302842D01*
X34068824Y-54428283D01*
X34194265Y-54524537D01*
X34340344Y-54585045D01*
X34457915Y-54600523D01*
X34497105Y-54605683D01*
X34497106Y-54605683D01*
X34497107Y-54605683D01*
X34528458Y-54601555D01*
X34653868Y-54585045D01*
X34799947Y-54524537D01*
X34925388Y-54428283D01*
X35021642Y-54302842D01*
X35082150Y-54156763D01*
X35102788Y-54000001D01*
X35082150Y-53843239D01*
X35021643Y-53697162D01*
X35021643Y-53697161D01*
X34925387Y-53571718D01*
X34861338Y-53522571D01*
X34826683Y-53472146D01*
X34822606Y-53444029D01*
X34822606Y-53016374D01*
X34822793Y-53012073D01*
X34826370Y-52971194D01*
X34815746Y-52931549D01*
X34814816Y-52927349D01*
X34814274Y-52924274D01*
X34807694Y-52886956D01*
X34806946Y-52885660D01*
X34797048Y-52861768D01*
X34796660Y-52860317D01*
X34796658Y-52860314D01*
X34796657Y-52860312D01*
X34773131Y-52826713D01*
X34770809Y-52823069D01*
X34767620Y-52817546D01*
X34750300Y-52787546D01*
X34750299Y-52787544D01*
X34720102Y-52762207D01*
X34718871Y-52761174D01*
X34715694Y-52758262D01*
X33638847Y-51681415D01*
X33635928Y-51678230D01*
X33609562Y-51646807D01*
X33586601Y-51633551D01*
X33574024Y-51626289D01*
X33570386Y-51623971D01*
X33539321Y-51602218D01*
X33502499Y-51553353D01*
X33497106Y-51521123D01*
X33497106Y-51399500D01*
X33516013Y-51341309D01*
X33565513Y-51305345D01*
X33596106Y-51300500D01*
X35914095Y-51300500D01*
X35955671Y-51309653D01*
X35991466Y-51326218D01*
X36111949Y-51349463D01*
X36234479Y-51342912D01*
X36351797Y-51306954D01*
X36456954Y-51243720D01*
X36543719Y-51156954D01*
X36606954Y-51051798D01*
X36642912Y-50934480D01*
X36649463Y-50811950D01*
X36649461Y-50811940D01*
X36626220Y-50691473D01*
X36626218Y-50691470D01*
X36626218Y-50691466D01*
X36609652Y-50655668D01*
X36600500Y-50614094D01*
X36600500Y-50239541D01*
X36619407Y-50181350D01*
X36668907Y-50145386D01*
X36730093Y-50145386D01*
X36764328Y-50164720D01*
X36776627Y-50175377D01*
X36907543Y-50235165D01*
X37014196Y-50250500D01*
X37014201Y-50250500D01*
X37085804Y-50250500D01*
X37174680Y-50237720D01*
X37192457Y-50235165D01*
X37323373Y-50175377D01*
X37360170Y-50143491D01*
X37416528Y-50119675D01*
X37476123Y-50133533D01*
X37489824Y-50143487D01*
X37526627Y-50175377D01*
X37657543Y-50235165D01*
X37764196Y-50250500D01*
X37764201Y-50250500D01*
X37835804Y-50250500D01*
X37924680Y-50237720D01*
X37942457Y-50235165D01*
X38073373Y-50175377D01*
X38110170Y-50143491D01*
X38166528Y-50119675D01*
X38226123Y-50133533D01*
G37*
%TD.AperFunction*%
%TA.AperFunction,Conductor*%
G36*
X31455797Y-51319407D02*
G01*
X31491761Y-51368907D01*
X31496606Y-51399500D01*
X31496606Y-52519748D01*
X31496867Y-52522399D01*
X31497106Y-52527256D01*
X31497106Y-52600500D01*
X31478199Y-52658691D01*
X31428699Y-52694655D01*
X31398106Y-52699500D01*
X29596106Y-52699500D01*
X29537915Y-52680593D01*
X29501951Y-52631093D01*
X29497106Y-52600500D01*
X29497106Y-52527256D01*
X29497345Y-52522399D01*
X29497606Y-52519748D01*
X29497606Y-51399500D01*
X29516513Y-51341309D01*
X29566013Y-51305345D01*
X29596606Y-51300500D01*
X31397606Y-51300500D01*
X31455797Y-51319407D01*
G37*
%TD.AperFunction*%
%TD*%
%TA.AperFunction,Conductor*%
%TO.N,Net-(S1-NO_1)*%
G36*
X53198174Y-56515353D02*
G01*
X53201527Y-56517900D01*
X53335185Y-56623978D01*
X53369011Y-56674963D01*
X53369268Y-56727146D01*
X53353054Y-56787660D01*
X53353054Y-56787661D01*
X53353054Y-56919445D01*
X53387162Y-57046738D01*
X53453054Y-57160867D01*
X53470502Y-57178315D01*
X53498281Y-57232830D01*
X53499500Y-57248319D01*
X53499500Y-60734006D01*
X53480593Y-60792197D01*
X53431093Y-60828161D01*
X53369907Y-60828161D01*
X53321496Y-60793667D01*
X53302704Y-60768782D01*
X53155405Y-60634501D01*
X52985941Y-60529573D01*
X52800081Y-60457570D01*
X52800080Y-60457569D01*
X52800078Y-60457569D01*
X52604155Y-60420946D01*
X52404835Y-60420946D01*
X52208911Y-60457569D01*
X52023048Y-60529573D01*
X52023043Y-60529576D01*
X51853589Y-60634498D01*
X51853587Y-60634499D01*
X51853585Y-60634501D01*
X51706287Y-60768781D01*
X51706284Y-60768784D01*
X51586175Y-60927833D01*
X51586165Y-60927849D01*
X51497324Y-61106265D01*
X51442778Y-61297975D01*
X51442778Y-61297977D01*
X51424387Y-61496446D01*
X51442778Y-61694915D01*
X51497324Y-61886626D01*
X51586169Y-62065050D01*
X51706286Y-62224110D01*
X51853585Y-62358391D01*
X52023049Y-62463319D01*
X52115759Y-62499235D01*
X52163189Y-62537886D01*
X52178995Y-62591549D01*
X52178995Y-63128675D01*
X52178807Y-63132977D01*
X52175665Y-63168894D01*
X52175231Y-63173856D01*
X52185849Y-63213486D01*
X52186784Y-63217702D01*
X52193906Y-63258095D01*
X52194659Y-63259398D01*
X52204549Y-63283274D01*
X52204938Y-63284729D01*
X52204941Y-63284734D01*
X52228466Y-63318331D01*
X52230787Y-63321974D01*
X52251301Y-63357505D01*
X52282719Y-63383868D01*
X52285905Y-63386787D01*
X52355499Y-63456380D01*
X52383276Y-63510897D01*
X52384495Y-63526384D01*
X52384495Y-63566446D01*
X54047088Y-65329525D01*
X54073255Y-65384833D01*
X54061916Y-65444958D01*
X54017401Y-65486936D01*
X53975062Y-65496446D01*
X53538159Y-65496446D01*
X53479968Y-65477539D01*
X53468161Y-65467455D01*
X53453760Y-65453054D01*
X53339631Y-65387162D01*
X53212338Y-65353054D01*
X53080554Y-65353054D01*
X52961953Y-65384833D01*
X52953261Y-65387162D01*
X52839133Y-65453053D01*
X52839132Y-65453053D01*
X52839132Y-65453054D01*
X52821681Y-65470504D01*
X52767166Y-65498281D01*
X52751679Y-65499500D01*
X51099500Y-65499500D01*
X51041309Y-65480593D01*
X51005345Y-65431093D01*
X51000500Y-65400500D01*
X51000500Y-56595446D01*
X51019407Y-56537255D01*
X51068907Y-56501291D01*
X51099500Y-56496446D01*
X53139983Y-56496446D01*
X53198174Y-56515353D01*
G37*
%TD.AperFunction*%
%TD*%
%TA.AperFunction,Conductor*%
%TO.N,GND2*%
G36*
X64809871Y-61519407D02*
G01*
X64821679Y-61529492D01*
X64839132Y-61546945D01*
X64953261Y-61612837D01*
X65080554Y-61646945D01*
X65080556Y-61646945D01*
X65212336Y-61646945D01*
X65212338Y-61646945D01*
X65339631Y-61612837D01*
X65363770Y-61598899D01*
X65423618Y-61586177D01*
X65479514Y-61611062D01*
X65487820Y-61619493D01*
X65493570Y-61626074D01*
X65572080Y-61672982D01*
X65630271Y-61691889D01*
X65642971Y-61693900D01*
X65693769Y-61701946D01*
X65693773Y-61701946D01*
X65870017Y-61701946D01*
X65928208Y-61720853D01*
X65964172Y-61770353D01*
X65965227Y-61773818D01*
X65997324Y-61886626D01*
X66086169Y-62065050D01*
X66206286Y-62224110D01*
X66353585Y-62358391D01*
X66523049Y-62463319D01*
X66708909Y-62535322D01*
X66904835Y-62571946D01*
X67104155Y-62571946D01*
X67300081Y-62535322D01*
X67485941Y-62463319D01*
X67655405Y-62358391D01*
X67802704Y-62224110D01*
X67821498Y-62199222D01*
X67871653Y-62164181D01*
X67932828Y-62165312D01*
X67981654Y-62202184D01*
X67999500Y-62258885D01*
X67999500Y-65400500D01*
X67980593Y-65458691D01*
X67931093Y-65494655D01*
X67900500Y-65499500D01*
X66248320Y-65499500D01*
X66190129Y-65480593D01*
X66178320Y-65470507D01*
X66160867Y-65453054D01*
X66046738Y-65387162D01*
X65919445Y-65353054D01*
X65787661Y-65353054D01*
X65660368Y-65387162D01*
X65546239Y-65453054D01*
X65453054Y-65546239D01*
X65387162Y-65660368D01*
X65353054Y-65787661D01*
X65353054Y-65919445D01*
X65387162Y-66046738D01*
X65453054Y-66160867D01*
X65470502Y-66178315D01*
X65498281Y-66232830D01*
X65499500Y-66248319D01*
X65499500Y-67900705D01*
X65480593Y-67958896D01*
X65431093Y-67994860D01*
X65409641Y-67999282D01*
X65407290Y-67999499D01*
X65225029Y-68033570D01*
X65052127Y-68100552D01*
X65052122Y-68100555D01*
X64890590Y-68200572D01*
X64889779Y-68199263D01*
X64837923Y-68217171D01*
X64779395Y-68199335D01*
X64742529Y-68150503D01*
X64741116Y-68146079D01*
X64718188Y-68067994D01*
X64709953Y-68039947D01*
X64709950Y-68039942D01*
X64632144Y-67918873D01*
X64624999Y-67912682D01*
X64523373Y-67824623D01*
X64523371Y-67824622D01*
X64392456Y-67764834D01*
X64285804Y-67749500D01*
X64285799Y-67749500D01*
X64214201Y-67749500D01*
X64214196Y-67749500D01*
X64107543Y-67764834D01*
X63976628Y-67824622D01*
X63939830Y-67856507D01*
X63883470Y-67880323D01*
X63823875Y-67866463D01*
X63810170Y-67856507D01*
X63799171Y-67846977D01*
X63773373Y-67824623D01*
X63773371Y-67824622D01*
X63642456Y-67764834D01*
X63535804Y-67749500D01*
X63535799Y-67749500D01*
X63464201Y-67749500D01*
X63464196Y-67749500D01*
X63357543Y-67764834D01*
X63226628Y-67824622D01*
X63189830Y-67856507D01*
X63133470Y-67880323D01*
X63073875Y-67866463D01*
X63060170Y-67856507D01*
X63049171Y-67846977D01*
X63023373Y-67824623D01*
X63023371Y-67824622D01*
X62892456Y-67764834D01*
X62785804Y-67749500D01*
X62785799Y-67749500D01*
X62714201Y-67749500D01*
X62714196Y-67749500D01*
X62607543Y-67764834D01*
X62476628Y-67824622D01*
X62367855Y-67918873D01*
X62290049Y-68039942D01*
X62290047Y-68039947D01*
X62258883Y-68146080D01*
X62224347Y-68196587D01*
X62166719Y-68217148D01*
X62109542Y-68200358D01*
X62109410Y-68200572D01*
X62108634Y-68200091D01*
X62108012Y-68199909D01*
X62105981Y-68198449D01*
X61947877Y-68100555D01*
X61947872Y-68100552D01*
X61774973Y-68033571D01*
X61774972Y-68033570D01*
X61774970Y-68033570D01*
X61592710Y-67999500D01*
X61500099Y-67999500D01*
X57500500Y-67999500D01*
X57500000Y-67999500D01*
X57407290Y-67999500D01*
X57225029Y-68033570D01*
X57052127Y-68100552D01*
X57052122Y-68100555D01*
X56890590Y-68200572D01*
X56889779Y-68199263D01*
X56837923Y-68217171D01*
X56779395Y-68199335D01*
X56742529Y-68150503D01*
X56741116Y-68146080D01*
X56718188Y-68067994D01*
X56709986Y-68040059D01*
X56711733Y-67978901D01*
X56749096Y-67930448D01*
X56792051Y-67914018D01*
X56811257Y-67911490D01*
X56957336Y-67850982D01*
X57082777Y-67754728D01*
X57179031Y-67629287D01*
X57239539Y-67483208D01*
X57260177Y-67326446D01*
X57239539Y-67169684D01*
X57179032Y-67023607D01*
X57179032Y-67023606D01*
X57082781Y-66898169D01*
X57082780Y-66898168D01*
X57082777Y-66898164D01*
X57082772Y-66898160D01*
X57082771Y-66898159D01*
X56957333Y-66801908D01*
X56811261Y-66741403D01*
X56811253Y-66741401D01*
X56654496Y-66720764D01*
X56654494Y-66720764D01*
X56497736Y-66741401D01*
X56497728Y-66741403D01*
X56351656Y-66801908D01*
X56351655Y-66801908D01*
X56226215Y-66898162D01*
X56223875Y-66900502D01*
X56221765Y-66901576D01*
X56221065Y-66902114D01*
X56220965Y-66901984D01*
X56169356Y-66928275D01*
X56108925Y-66918699D01*
X56083872Y-66900497D01*
X55564325Y-66380950D01*
X55536548Y-66326433D01*
X55546119Y-66266001D01*
X55589384Y-66222736D01*
X55634329Y-66211946D01*
X56098525Y-66211946D01*
X56156716Y-66230853D01*
X56177065Y-66250677D01*
X56226213Y-66314728D01*
X56351654Y-66410982D01*
X56497733Y-66471490D01*
X56615304Y-66486968D01*
X56654494Y-66492128D01*
X56654495Y-66492128D01*
X56654496Y-66492128D01*
X56685847Y-66488000D01*
X56811257Y-66471490D01*
X56957336Y-66410982D01*
X57082777Y-66314728D01*
X57179031Y-66189287D01*
X57239539Y-66043208D01*
X57260177Y-65886446D01*
X57239539Y-65729684D01*
X57210827Y-65660368D01*
X57179032Y-65583607D01*
X57179032Y-65583606D01*
X57082781Y-65458169D01*
X57082780Y-65458168D01*
X57082777Y-65458164D01*
X57082772Y-65458160D01*
X57082771Y-65458159D01*
X56978360Y-65378042D01*
X56943704Y-65327618D01*
X56945305Y-65266453D01*
X56982553Y-65217912D01*
X57038627Y-65200500D01*
X62936175Y-65200500D01*
X62994366Y-65219407D01*
X63006174Y-65229492D01*
X63023627Y-65246945D01*
X63137756Y-65312837D01*
X63265049Y-65346945D01*
X63265051Y-65346945D01*
X63396831Y-65346945D01*
X63396833Y-65346945D01*
X63524126Y-65312837D01*
X63638255Y-65246945D01*
X63731440Y-65153760D01*
X63797332Y-65039631D01*
X63831440Y-64912338D01*
X63831440Y-64780554D01*
X63797332Y-64653261D01*
X63731440Y-64539132D01*
X63731437Y-64539129D01*
X63713990Y-64521681D01*
X63686214Y-64467164D01*
X63684995Y-64451679D01*
X63684995Y-61599500D01*
X63703902Y-61541309D01*
X63753402Y-61505345D01*
X63783995Y-61500500D01*
X64751680Y-61500500D01*
X64809871Y-61519407D01*
G37*
%TD.AperFunction*%
%TA.AperFunction,Conductor*%
G36*
X53981852Y-65720853D02*
G01*
X53993665Y-65730942D01*
X55807752Y-67545030D01*
X55810670Y-67548215D01*
X55837039Y-67579639D01*
X55837040Y-67579640D01*
X55872568Y-67600152D01*
X55876207Y-67602471D01*
X55909806Y-67625997D01*
X55909808Y-67625998D01*
X55909811Y-67626000D01*
X55909813Y-67626000D01*
X55909814Y-67626001D01*
X55911266Y-67626390D01*
X55935146Y-67636281D01*
X55936450Y-67637034D01*
X55948228Y-67639110D01*
X56002250Y-67667831D01*
X56029075Y-67722822D01*
X56018453Y-67783079D01*
X55981364Y-67818899D01*
X55982583Y-67820795D01*
X55976631Y-67824620D01*
X55976628Y-67824622D01*
X55976627Y-67824623D01*
X55954602Y-67843707D01*
X55939830Y-67856507D01*
X55883470Y-67880323D01*
X55823875Y-67866463D01*
X55810170Y-67856507D01*
X55799171Y-67846977D01*
X55773373Y-67824623D01*
X55773371Y-67824622D01*
X55642456Y-67764834D01*
X55535804Y-67749500D01*
X55535799Y-67749500D01*
X55464201Y-67749500D01*
X55464196Y-67749500D01*
X55357543Y-67764834D01*
X55226628Y-67824622D01*
X55189830Y-67856507D01*
X55133470Y-67880323D01*
X55073875Y-67866463D01*
X55060170Y-67856507D01*
X55049171Y-67846977D01*
X55023373Y-67824623D01*
X55023371Y-67824622D01*
X54892456Y-67764834D01*
X54785804Y-67749500D01*
X54785799Y-67749500D01*
X54714201Y-67749500D01*
X54714196Y-67749500D01*
X54607543Y-67764834D01*
X54476628Y-67824622D01*
X54367855Y-67918873D01*
X54290049Y-68039942D01*
X54290047Y-68039947D01*
X54258883Y-68146080D01*
X54224347Y-68196587D01*
X54166719Y-68217148D01*
X54109542Y-68200358D01*
X54109410Y-68200572D01*
X54108634Y-68200091D01*
X54108012Y-68199909D01*
X54105981Y-68198449D01*
X53947877Y-68100555D01*
X53947872Y-68100552D01*
X53774973Y-68033571D01*
X53774972Y-68033570D01*
X53774970Y-68033570D01*
X53592709Y-67999499D01*
X53590359Y-67999282D01*
X53589450Y-67998890D01*
X53588211Y-67998659D01*
X53588263Y-67998379D01*
X53534163Y-67975083D01*
X53502923Y-67922474D01*
X53500500Y-67900705D01*
X53500500Y-66248318D01*
X53519407Y-66190127D01*
X53529494Y-66178317D01*
X53546945Y-66160867D01*
X53612837Y-66046738D01*
X53646945Y-65919445D01*
X53646945Y-65800946D01*
X53665852Y-65742755D01*
X53715352Y-65706791D01*
X53745945Y-65701946D01*
X53923661Y-65701946D01*
X53981852Y-65720853D01*
G37*
%TD.AperFunction*%
%TA.AperFunction,Conductor*%
G36*
X55274195Y-61519407D02*
G01*
X55310159Y-61568907D01*
X55315004Y-61599500D01*
X55315004Y-64451679D01*
X55296097Y-64509870D01*
X55286009Y-64521681D01*
X55268561Y-64539129D01*
X55268559Y-64539131D01*
X55268559Y-64539132D01*
X55202667Y-64653261D01*
X55168559Y-64780554D01*
X55168559Y-64912338D01*
X55202667Y-65039631D01*
X55268559Y-65153760D01*
X55361744Y-65246945D01*
X55475873Y-65312837D01*
X55603166Y-65346945D01*
X55603168Y-65346945D01*
X55734948Y-65346945D01*
X55734950Y-65346945D01*
X55862243Y-65312837D01*
X55976372Y-65246945D01*
X55993821Y-65229495D01*
X56048337Y-65201719D01*
X56063824Y-65200500D01*
X56270363Y-65200500D01*
X56328554Y-65219407D01*
X56364518Y-65268907D01*
X56364518Y-65330093D01*
X56330630Y-65378042D01*
X56226218Y-65458159D01*
X56226209Y-65458168D01*
X56177067Y-65522213D01*
X56126643Y-65556869D01*
X56098525Y-65560946D01*
X55421726Y-65560946D01*
X55363535Y-65542039D01*
X55351722Y-65531950D01*
X52858991Y-63039219D01*
X52831214Y-62984702D01*
X52829995Y-62969215D01*
X52829995Y-62591549D01*
X52848902Y-62533358D01*
X52893229Y-62499235D01*
X52985941Y-62463319D01*
X53155405Y-62358391D01*
X53302704Y-62224110D01*
X53422821Y-62065050D01*
X53511666Y-61886626D01*
X53566212Y-61694915D01*
X53566212Y-61694912D01*
X53567464Y-61690513D01*
X53569372Y-61691056D01*
X53594908Y-61644144D01*
X53650160Y-61617861D01*
X53688600Y-61620401D01*
X53787661Y-61646945D01*
X53787662Y-61646945D01*
X53919443Y-61646945D01*
X53919445Y-61646945D01*
X54046738Y-61612837D01*
X54160867Y-61546945D01*
X54178316Y-61529495D01*
X54232832Y-61501719D01*
X54248319Y-61500500D01*
X55216004Y-61500500D01*
X55274195Y-61519407D01*
G37*
%TD.AperFunction*%
%TD*%
%TA.AperFunction,NonConductor*%
G36*
X64890458Y-49799640D02*
G01*
X64890590Y-49799428D01*
X64891361Y-49799905D01*
X64891986Y-49800089D01*
X64894020Y-49801551D01*
X64894479Y-49801835D01*
X64894481Y-49801837D01*
X65052128Y-49899448D01*
X65225027Y-49966429D01*
X65407290Y-50000500D01*
X65407297Y-50000500D01*
X65409627Y-50000716D01*
X65410533Y-50001106D01*
X65411789Y-50001341D01*
X65411736Y-50001623D01*
X65465826Y-50024907D01*
X65497074Y-50077511D01*
X65499500Y-50099294D01*
X65499500Y-51651778D01*
X65480593Y-51709969D01*
X65470579Y-51721706D01*
X65454584Y-51737734D01*
X65454582Y-51737737D01*
X65389851Y-51847754D01*
X65354810Y-51970489D01*
X65354809Y-51970493D01*
X65351696Y-52098102D01*
X65380712Y-52222400D01*
X65380713Y-52222405D01*
X65381934Y-52224732D01*
X65440003Y-52335447D01*
X65525769Y-52429987D01*
X65525771Y-52429988D01*
X65525773Y-52429990D01*
X65632517Y-52499972D01*
X65632519Y-52499973D01*
X65753419Y-52540922D01*
X65880726Y-52550215D01*
X66006291Y-52527254D01*
X66044328Y-52509652D01*
X66085903Y-52500500D01*
X67900500Y-52500500D01*
X67958691Y-52519407D01*
X67994655Y-52568907D01*
X67999500Y-52599500D01*
X67999500Y-55734006D01*
X67980593Y-55792197D01*
X67931093Y-55828161D01*
X67869907Y-55828161D01*
X67821497Y-55793668D01*
X67820386Y-55792197D01*
X67802704Y-55768782D01*
X67655405Y-55634501D01*
X67639916Y-55624910D01*
X67485949Y-55529577D01*
X67485943Y-55529574D01*
X67485941Y-55529573D01*
X67457035Y-55518374D01*
X67393230Y-55493655D01*
X67345800Y-55455003D01*
X67329995Y-55401341D01*
X67329995Y-54706414D01*
X67330182Y-54702117D01*
X67333758Y-54661243D01*
X67323133Y-54621594D01*
X67322208Y-54617415D01*
X67315083Y-54577005D01*
X67315083Y-54577004D01*
X67314335Y-54575709D01*
X67304437Y-54551817D01*
X67304049Y-54550366D01*
X67280517Y-54516759D01*
X67278202Y-54513124D01*
X67257688Y-54477594D01*
X67250716Y-54471744D01*
X67226266Y-54451228D01*
X67223089Y-54448316D01*
X63152632Y-50377860D01*
X63149713Y-50374675D01*
X63123347Y-50343253D01*
X63119927Y-50340383D01*
X63087505Y-50288494D01*
X63091775Y-50227458D01*
X63131105Y-50180588D01*
X63190473Y-50165787D01*
X63224692Y-50174493D01*
X63226626Y-50175376D01*
X63226627Y-50175377D01*
X63282210Y-50200761D01*
X63357543Y-50235165D01*
X63464196Y-50250500D01*
X63464201Y-50250500D01*
X63535804Y-50250500D01*
X63624680Y-50237720D01*
X63642457Y-50235165D01*
X63773373Y-50175377D01*
X63810170Y-50143491D01*
X63866528Y-50119675D01*
X63926123Y-50133533D01*
X63939824Y-50143487D01*
X63976627Y-50175377D01*
X64032210Y-50200761D01*
X64107543Y-50235165D01*
X64214196Y-50250500D01*
X64214201Y-50250500D01*
X64285804Y-50250500D01*
X64374680Y-50237720D01*
X64392457Y-50235165D01*
X64523373Y-50175377D01*
X64632143Y-50081128D01*
X64709953Y-49960053D01*
X64741116Y-49853919D01*
X64775652Y-49803413D01*
X64833279Y-49782851D01*
X64890458Y-49799640D01*
G37*
%TD.AperFunction*%
%TA.AperFunction,NonConductor*%
G36*
X62220566Y-49800637D02*
G01*
X62257455Y-49849451D01*
X62258883Y-49853919D01*
X62285775Y-49945504D01*
X62284028Y-50006665D01*
X62246665Y-50055118D01*
X62228674Y-50064859D01*
X62211654Y-50071909D01*
X62211652Y-50071910D01*
X62086218Y-50168159D01*
X62086208Y-50168169D01*
X61989957Y-50293606D01*
X61989957Y-50293607D01*
X61929452Y-50439679D01*
X61929450Y-50439687D01*
X61908813Y-50596445D01*
X61908813Y-50596446D01*
X61929450Y-50753204D01*
X61929452Y-50753212D01*
X61989957Y-50899284D01*
X61989957Y-50899285D01*
X61989959Y-50899287D01*
X62086213Y-51024728D01*
X62211654Y-51120982D01*
X62357733Y-51181490D01*
X62475304Y-51196968D01*
X62514494Y-51202128D01*
X62514495Y-51202128D01*
X62514496Y-51202128D01*
X62545847Y-51198000D01*
X62671257Y-51181490D01*
X62817336Y-51120982D01*
X62837723Y-51105337D01*
X62895399Y-51084914D01*
X62954065Y-51102291D01*
X62967995Y-51113876D01*
X63156061Y-51301942D01*
X63183838Y-51356459D01*
X63174267Y-51416891D01*
X63131002Y-51460156D01*
X63086057Y-51470946D01*
X58260465Y-51470946D01*
X58202274Y-51452039D01*
X58181923Y-51432213D01*
X58132780Y-51368168D01*
X58132777Y-51368164D01*
X58132772Y-51368160D01*
X58132771Y-51368159D01*
X58061599Y-51313547D01*
X58007336Y-51271910D01*
X58007335Y-51271909D01*
X58007333Y-51271908D01*
X57861261Y-51211403D01*
X57861253Y-51211401D01*
X57704496Y-51190764D01*
X57704494Y-51190764D01*
X57547736Y-51211401D01*
X57547728Y-51211403D01*
X57401656Y-51271908D01*
X57401655Y-51271908D01*
X57276218Y-51368159D01*
X57276208Y-51368169D01*
X57179957Y-51493606D01*
X57179957Y-51493607D01*
X57119452Y-51639679D01*
X57119450Y-51639687D01*
X57098813Y-51796445D01*
X57098813Y-51796446D01*
X57119450Y-51953204D01*
X57119452Y-51953212D01*
X57179957Y-52099284D01*
X57179957Y-52099285D01*
X57274431Y-52222406D01*
X57276213Y-52224728D01*
X57401654Y-52320982D01*
X57401655Y-52320982D01*
X57401656Y-52320983D01*
X57547728Y-52381488D01*
X57547733Y-52381490D01*
X57665304Y-52396968D01*
X57704494Y-52402128D01*
X57704495Y-52402128D01*
X57704496Y-52402128D01*
X57735847Y-52398000D01*
X57861257Y-52381490D01*
X58007336Y-52320982D01*
X58132777Y-52224728D01*
X58181923Y-52160678D01*
X58232347Y-52126023D01*
X58260465Y-52121946D01*
X62999995Y-52121946D01*
X63058186Y-52140853D01*
X63094150Y-52190353D01*
X63098995Y-52220946D01*
X63098995Y-52558781D01*
X63099426Y-52568182D01*
X63099427Y-52568190D01*
X63099427Y-52568191D01*
X63101511Y-52590897D01*
X63101511Y-52590899D01*
X63108954Y-52615439D01*
X63107749Y-52676613D01*
X63070817Y-52725395D01*
X63063716Y-52729908D01*
X63023629Y-52753052D01*
X63023627Y-52753053D01*
X63023627Y-52753054D01*
X63006176Y-52770504D01*
X62951661Y-52798281D01*
X62936174Y-52799500D01*
X56063825Y-52799500D01*
X56005634Y-52780593D01*
X55993825Y-52770507D01*
X55976372Y-52753054D01*
X55862243Y-52687162D01*
X55734950Y-52653054D01*
X55603166Y-52653054D01*
X55475873Y-52687162D01*
X55361744Y-52753054D01*
X55268559Y-52846239D01*
X55202667Y-52960368D01*
X55168559Y-53087661D01*
X55168559Y-53219445D01*
X55202667Y-53346738D01*
X55268559Y-53460867D01*
X55286006Y-53478314D01*
X55313785Y-53532829D01*
X55315004Y-53548318D01*
X55315004Y-56400500D01*
X55296097Y-56458691D01*
X55246597Y-56494655D01*
X55216004Y-56499500D01*
X54248320Y-56499500D01*
X54190129Y-56480593D01*
X54178320Y-56470507D01*
X54160867Y-56453054D01*
X54046738Y-56387162D01*
X53919445Y-56353054D01*
X53787661Y-56353054D01*
X53689866Y-56379257D01*
X53628765Y-56376055D01*
X53581215Y-56337550D01*
X53566928Y-56301814D01*
X53566213Y-56297988D01*
X53566212Y-56297977D01*
X53511666Y-56106266D01*
X53422821Y-55927842D01*
X53302704Y-55768782D01*
X53155405Y-55634501D01*
X53070673Y-55582037D01*
X52985946Y-55529576D01*
X52985941Y-55529573D01*
X52800081Y-55457570D01*
X52800080Y-55457569D01*
X52800078Y-55457569D01*
X52604155Y-55420946D01*
X52404835Y-55420946D01*
X52208911Y-55457569D01*
X52023048Y-55529573D01*
X52023043Y-55529576D01*
X51853589Y-55634498D01*
X51853587Y-55634499D01*
X51853585Y-55634501D01*
X51706286Y-55768782D01*
X51706284Y-55768784D01*
X51586175Y-55927833D01*
X51586165Y-55927849D01*
X51509490Y-56081833D01*
X51497324Y-56106266D01*
X51465236Y-56219040D01*
X51431128Y-56269834D01*
X51373675Y-56290878D01*
X51370017Y-56290946D01*
X51099500Y-56290946D01*
X51041309Y-56272039D01*
X51005345Y-56222539D01*
X51000500Y-56191946D01*
X51000500Y-52599500D01*
X51019407Y-52541309D01*
X51068907Y-52505345D01*
X51099500Y-52500500D01*
X52914159Y-52500500D01*
X52955713Y-52509643D01*
X52993715Y-52527217D01*
X53029839Y-52533814D01*
X53119268Y-52550147D01*
X53246556Y-52540835D01*
X53367433Y-52499877D01*
X53474164Y-52429894D01*
X53559916Y-52335366D01*
X53619201Y-52222343D01*
X53648225Y-52098059D01*
X53645130Y-51970468D01*
X53610113Y-51847737D01*
X53545417Y-51737722D01*
X53545416Y-51737720D01*
X53529404Y-51721666D01*
X53501699Y-51667113D01*
X53500500Y-51651755D01*
X53500500Y-50099294D01*
X53519407Y-50041103D01*
X53568907Y-50005139D01*
X53590373Y-50000716D01*
X53592702Y-50000500D01*
X53592710Y-50000500D01*
X53774973Y-49966429D01*
X53947872Y-49899448D01*
X54105519Y-49801837D01*
X54105518Y-49801837D01*
X54109410Y-49799428D01*
X54110225Y-49800745D01*
X54162030Y-49782829D01*
X54220566Y-49800637D01*
X54257455Y-49849451D01*
X54258883Y-49853919D01*
X54290047Y-49960052D01*
X54290049Y-49960057D01*
X54367855Y-50081126D01*
X54367856Y-50081127D01*
X54367857Y-50081128D01*
X54476627Y-50175377D01*
X54532210Y-50200761D01*
X54607543Y-50235165D01*
X54714196Y-50250500D01*
X54714201Y-50250500D01*
X54785804Y-50250500D01*
X54874680Y-50237720D01*
X54892457Y-50235165D01*
X55023373Y-50175377D01*
X55060170Y-50143491D01*
X55116528Y-50119675D01*
X55176123Y-50133533D01*
X55189824Y-50143487D01*
X55226627Y-50175377D01*
X55282210Y-50200761D01*
X55357543Y-50235165D01*
X55464196Y-50250500D01*
X55464201Y-50250500D01*
X55535804Y-50250500D01*
X55624680Y-50237720D01*
X55642457Y-50235165D01*
X55773373Y-50175377D01*
X55810170Y-50143491D01*
X55866528Y-50119675D01*
X55926123Y-50133533D01*
X55939824Y-50143487D01*
X55976627Y-50175377D01*
X56032210Y-50200761D01*
X56107543Y-50235165D01*
X56214196Y-50250500D01*
X56214201Y-50250500D01*
X56285804Y-50250500D01*
X56374680Y-50237720D01*
X56392457Y-50235165D01*
X56523373Y-50175377D01*
X56632143Y-50081128D01*
X56709953Y-49960053D01*
X56741116Y-49853919D01*
X56775652Y-49803413D01*
X56833279Y-49782851D01*
X56890458Y-49799640D01*
X56890590Y-49799428D01*
X56891361Y-49799905D01*
X56891986Y-49800089D01*
X56894020Y-49801551D01*
X56894479Y-49801835D01*
X56894481Y-49801837D01*
X57052128Y-49899448D01*
X57225027Y-49966429D01*
X57407290Y-50000500D01*
X61592710Y-50000500D01*
X61774973Y-49966429D01*
X61947872Y-49899448D01*
X62105519Y-49801837D01*
X62105518Y-49801837D01*
X62109410Y-49799428D01*
X62110225Y-49800745D01*
X62162030Y-49782829D01*
X62220566Y-49800637D01*
G37*
%TD.AperFunction*%
%TA.AperFunction,Conductor*%
%TO.N,Net-(J1-PadA)*%
G36*
X63591315Y-51746475D02*
G01*
X63608422Y-51760099D01*
X64958756Y-53104637D01*
X66650000Y-54795881D01*
X66677776Y-54850396D01*
X66678995Y-54865883D01*
X66678995Y-55401341D01*
X66660088Y-55459532D01*
X66615760Y-55493655D01*
X66523049Y-55529573D01*
X66523040Y-55529577D01*
X66353589Y-55634498D01*
X66353587Y-55634499D01*
X66353585Y-55634501D01*
X66206286Y-55768782D01*
X66206284Y-55768784D01*
X66086175Y-55927833D01*
X66086165Y-55927849D01*
X65997324Y-56106265D01*
X65942778Y-56297975D01*
X65924387Y-56496446D01*
X65942778Y-56694916D01*
X65987914Y-56853553D01*
X65997324Y-56886626D01*
X66086169Y-57065050D01*
X66206286Y-57224110D01*
X66353585Y-57358391D01*
X66523049Y-57463319D01*
X66708909Y-57535322D01*
X66904835Y-57571946D01*
X67104155Y-57571946D01*
X67300081Y-57535322D01*
X67485941Y-57463319D01*
X67655405Y-57358391D01*
X67802704Y-57224110D01*
X67821498Y-57199222D01*
X67871653Y-57164181D01*
X67932828Y-57165312D01*
X67981654Y-57202184D01*
X67999500Y-57258885D01*
X67999500Y-58234006D01*
X67980593Y-58292197D01*
X67931093Y-58328161D01*
X67869907Y-58328161D01*
X67821497Y-58293668D01*
X67820386Y-58292197D01*
X67802704Y-58268782D01*
X67655405Y-58134501D01*
X67485941Y-58029573D01*
X67300081Y-57957570D01*
X67300080Y-57957569D01*
X67300078Y-57957569D01*
X67104155Y-57920946D01*
X66904835Y-57920946D01*
X66708911Y-57957569D01*
X66523048Y-58029573D01*
X66523043Y-58029576D01*
X66353589Y-58134498D01*
X66353587Y-58134499D01*
X66353585Y-58134501D01*
X66206286Y-58268782D01*
X66206284Y-58268784D01*
X66086175Y-58427833D01*
X66086165Y-58427849D01*
X65997324Y-58606265D01*
X65942778Y-58797975D01*
X65942778Y-58797977D01*
X65924387Y-58996446D01*
X65942778Y-59194915D01*
X65997324Y-59386626D01*
X66086169Y-59565050D01*
X66206286Y-59724110D01*
X66353585Y-59858391D01*
X66523049Y-59963319D01*
X66708909Y-60035322D01*
X66904835Y-60071946D01*
X67104155Y-60071946D01*
X67300081Y-60035322D01*
X67485941Y-59963319D01*
X67655405Y-59858391D01*
X67802704Y-59724110D01*
X67821498Y-59699222D01*
X67871653Y-59664181D01*
X67932828Y-59665312D01*
X67981654Y-59702184D01*
X67999500Y-59758885D01*
X67999500Y-61397446D01*
X67980593Y-61455637D01*
X67931093Y-61491601D01*
X67900500Y-61496446D01*
X65693773Y-61496446D01*
X65635582Y-61477539D01*
X65599618Y-61428039D01*
X65599618Y-61366853D01*
X65608035Y-61347948D01*
X65612837Y-61339631D01*
X65646945Y-61212338D01*
X65646945Y-61080554D01*
X65612837Y-60953261D01*
X65546945Y-60839132D01*
X65546942Y-60839129D01*
X65529495Y-60821681D01*
X65501719Y-60767164D01*
X65500500Y-60751679D01*
X65500500Y-57248318D01*
X65519407Y-57190127D01*
X65529494Y-57178317D01*
X65546945Y-57160867D01*
X65612837Y-57046738D01*
X65646945Y-56919445D01*
X65646945Y-56787661D01*
X65612837Y-56660368D01*
X65546945Y-56546239D01*
X65453760Y-56453054D01*
X65339631Y-56387162D01*
X65212338Y-56353054D01*
X65080554Y-56353054D01*
X64953261Y-56387162D01*
X64839133Y-56453053D01*
X64839132Y-56453053D01*
X64839132Y-56453054D01*
X64821681Y-56470504D01*
X64767166Y-56498281D01*
X64751679Y-56499500D01*
X63783995Y-56499500D01*
X63725804Y-56480593D01*
X63689840Y-56431093D01*
X63684995Y-56400500D01*
X63684995Y-53548318D01*
X63703902Y-53490127D01*
X63713989Y-53478317D01*
X63731440Y-53460867D01*
X63797332Y-53346738D01*
X63831440Y-53219445D01*
X63831440Y-53087661D01*
X63797332Y-52960368D01*
X63731440Y-52846239D01*
X63638255Y-52753054D01*
X63524126Y-52687162D01*
X63396833Y-52653054D01*
X63396832Y-52653054D01*
X63396825Y-52653052D01*
X63390566Y-52652228D01*
X63335343Y-52625883D01*
X63306151Y-52572110D01*
X63304495Y-52554076D01*
X63304495Y-51942815D01*
X63323402Y-51884624D01*
X63340117Y-51866761D01*
X63475191Y-51754199D01*
X63531998Y-51731471D01*
X63591315Y-51746475D01*
G37*
%TD.AperFunction*%
%TD*%
M02*
