M48
; DRILL file {KiCad 7.0.8} date Tue Apr 23 11:22:26 2024
; FORMAT={-:-/ absolute / inch / decimal}
; #@! TF.CreationDate,2024-04-23T11:22:26-04:00
; #@! TF.GenerationSoftware,Kicad,Pcbnew,7.0.8
; #@! TF.FileFunction,Plated,1,2,PTH
FMAT,2
INCH
; #@! TA.AperFunction,Plated,PTH,ViaDrill
T1C0.0157
; #@! TA.AperFunction,Plated,PTH,ComponentDrill
T2C0.0394
%
G90
G05
T1
X1.0436Y-1.1417
X1.0436Y-2.126
X1.3582Y-1.1417
X1.3582Y-2.126
X2.0927Y-1.1613
X2.0927Y-2.1455
X2.2305Y-1.6097
X2.2305Y-1.6664
X2.2305Y-2.594
X2.2305Y-2.6506
X2.2718Y-1.055
X2.2718Y-2.0392
X2.4612Y-1.0077
X2.4612Y-1.992
X2.5927Y-1.5156
X2.5927Y-2.4999
T2
X2.0671Y-1.24
X2.0671Y-1.4369
X2.0671Y-2.2243
X2.0671Y-2.4211
X2.638Y-1.24
X2.638Y-1.3384
X2.638Y-1.4369
X2.638Y-2.2243
X2.638Y-2.3227
X2.638Y-2.4211
T0
M30
