M48
; DRILL file {KiCad 7.0.8} date Tue Apr 23 11:22:26 2024
; FORMAT={-:-/ absolute / inch / decimal}
; #@! TF.CreationDate,2024-04-23T11:22:26-04:00
; #@! TF.GenerationSoftware,Kicad,Pcbnew,7.0.8
; #@! TF.FileFunction,NonPlated,1,2,NPTH
FMAT,2
INCH
; #@! TA.AperFunction,NonPlated,NPTH,ComponentDrill
T1C0.0197
%
G90
G05
T1
X0.6988Y-0.9744
X0.6988Y-1.7028
X0.6988Y-1.9587
X0.6988Y-2.687
X0.7283Y-0.9744
X0.7283Y-1.7028
X0.7283Y-1.9587
X0.7283Y-2.687
X0.7579Y-0.9744
X0.7579Y-1.7028
X0.7579Y-1.9587
X0.7579Y-2.687
X0.8839Y-0.9744
X0.8839Y-1.9587
X0.9134Y-0.9744
X0.9134Y-1.9587
X0.9429Y-0.9744
X0.9429Y-1.9587
X1.2776Y-1.7028
X1.2776Y-2.687
X1.3071Y-1.7028
X1.3071Y-2.687
X1.3366Y-1.7028
X1.3366Y-2.687
X1.3626Y-1.3346
X1.3626Y-2.3189
X1.3776Y-1.3094
X1.3776Y-2.2937
X1.4177Y-1.3681
X1.4177Y-2.3524
X1.4331Y-1.3425
X1.4331Y-2.3268
X1.4587Y-0.9744
X1.4587Y-1.9587
X1.4882Y-0.9744
X1.4882Y-1.9587
X1.5177Y-0.9744
X1.5177Y-1.9587
X1.8524Y-1.7028
X1.8524Y-2.687
X1.8819Y-1.7028
X1.8819Y-2.687
X1.9114Y-1.7028
X1.9114Y-2.687
X2.1555Y-0.9744
X2.1555Y-1.7028
X2.1555Y-1.9587
X2.1555Y-2.687
X2.185Y-0.9744
X2.185Y-1.7028
X2.185Y-1.9587
X2.185Y-2.687
X2.2146Y-0.9744
X2.2146Y-1.7028
X2.2146Y-1.9587
X2.2146Y-2.687
X2.4705Y-0.9744
X2.4705Y-1.7028
X2.4705Y-1.9587
X2.4705Y-2.687
X2.5Y-0.9744
X2.5Y-1.7028
X2.5Y-1.9587
X2.5Y-2.687
X2.5295Y-0.9744
X2.5295Y-1.7028
X2.5295Y-1.9587
X2.5295Y-2.687
X2.7854Y-0.9744
X2.7854Y-1.7028
X2.7854Y-1.9587
X2.7854Y-2.687
X2.815Y-0.9744
X2.815Y-1.7028
X2.815Y-1.9587
X2.815Y-2.687
X2.8445Y-0.9744
X2.8445Y-1.7028
X2.8445Y-1.9587
X2.8445Y-2.687
T0
M30
